<?xml version="1.0" encoding="UTF-8"?>
<svg version="1.1" xmlns="http://www.w3.org/2000/svg" width="500" height="500">
<path d="M0 0 C165 0 330 0 500 0 C500 165 500 330 500 500 C335 500 170 500 0 500 C0 335 0 170 0 0 Z " fill="#FFFEFE" transform="translate(0,0)"/>
<path d="M0 0 C1.92875977 -0.00193359 1.92875977 -0.00193359 3.89648438 -0.00390625 C4.88902222 -0.00076416 4.88902222 -0.00076416 5.90161133 0.00244141 C7.90250053 0.0077713 9.90340922 0.00197583 11.90429688 -0.00390625 C22.65026288 0.00683435 32.25743655 0.47407319 42.48046875 3.8828125 C43.72026489 4.28814209 43.72026489 4.28814209 44.98510742 4.70166016 C61.92682904 10.32517975 79.28276497 18.31010872 92.10546875 31.1328125 C94.24290885 31.51875742 94.24290885 31.51875742 96.60546875 31.6328125 C100.88324653 31.91059028 100.88324653 31.91059028 103.10546875 34.1328125 C102.44546875 34.1328125 101.78546875 34.1328125 101.10546875 34.1328125 C101.10546875 38.83745797 101.67270169 39.29118621 104.85546875 42.5078125 C110.65931096 48.07251066 117.85961726 53.1328125 126.10546875 53.1328125 C126.43995112 50.08403382 126.43995112 50.08403382 124.41796875 48.2578125 C123.65484375 47.5565625 122.89171875 46.8553125 122.10546875 46.1328125 C121.32171875 45.3078125 120.53796875 44.4828125 119.73046875 43.6328125 C116.98573984 41.01878497 114.3044455 39.14147232 111.10546875 37.1328125 C114.10546875 36.1328125 114.10546875 36.1328125 115.90234375 36.84765625 C120.55426623 39.75975972 123.77003429 42.89928859 127.23046875 47.13671875 C129.91895018 49.99883128 133.02851529 51.90151144 136.3828125 53.90625 C136.95128906 54.31101563 137.51976562 54.71578125 138.10546875 55.1328125 C138.10546875 55.7928125 138.10546875 56.4528125 138.10546875 57.1328125 C127.43701145 57.68043293 119.15189697 55.83599551 110.10546875 50.1328125 C113.19323207 57.08027997 117.29994127 60.16855565 123.98046875 63.2578125 C135.21188554 68.47099079 140.78671099 74.40800204 147.10546875 85.1328125 C147.76546875 86.1228125 148.42546875 87.1128125 149.10546875 88.1328125 C149.10546875 89.1228125 149.10546875 90.1128125 149.10546875 91.1328125 C140.44619816 89.1982946 133.41406702 85.44141077 127.10546875 79.1328125 C127.36070312 79.9371875 127.36070312 79.9371875 127.62109375 80.7578125 C129.31634139 86.24031551 130.82315953 91.75821329 132.23046875 97.3203125 C132.48618652 98.31708008 132.48618652 98.31708008 132.74707031 99.33398438 C140.96727633 132.24749315 133.14466004 166.80990543 116.12890625 195.4609375 C112.29527109 201.41758177 108.03571769 206.72134285 103.18359375 211.87890625 C101.04973886 214.13879537 101.04973886 214.13879537 99.04296875 216.72265625 C81.61288914 238.4048319 47.81818548 252.09755816 21.10546875 256.1328125 C20.18588379 256.30409668 19.26629883 256.47538086 18.31884766 256.65185547 C12.54873178 257.51548776 6.74170206 257.31738747 0.91796875 257.3203125 C-0.34595703 257.33255859 -1.60988281 257.34480469 -2.91210938 257.35742188 C-10.47909458 257.36916577 -17.51827886 256.82571048 -24.89453125 255.1328125 C-26.1578125 254.84921875 -27.42109375 254.565625 -28.72265625 254.2734375 C-48.08154709 249.23482208 -69.72116755 240.80816935 -83.27734375 225.4296875 C-86.63324014 222.48451276 -88.79815305 222.3900575 -93.20703125 222.0703125 C-104.91434245 220.90961905 -111.32131512 215.84535903 -119.39453125 207.5703125 C-122.17412592 204.8602077 -125.146196 202.68848544 -128.3203125 200.46484375 C-129.09955078 199.80548828 -129.09955078 199.80548828 -129.89453125 199.1328125 C-129.89453125 198.4728125 -129.89453125 197.8128125 -129.89453125 197.1328125 C-120.20182327 197.29053408 -112.59461617 198.81463848 -103.89453125 203.1328125 C-106.77962072 196.40093707 -110.2232826 194.12376095 -116.64453125 191.1953125 C-128.47077903 185.725322 -135.18334524 177.90409942 -140.89453125 166.1328125 C-140.89453125 165.4728125 -140.89453125 164.8128125 -140.89453125 164.1328125 C-131.2853167 165.65808465 -125.34541501 170.114791 -117.89453125 176.1328125 C-118.22066406 175.29621094 -118.54679687 174.45960938 -118.8828125 173.59765625 C-119.31980469 172.43363281 -119.75679687 171.26960937 -120.20703125 170.0703125 C-120.63628906 168.94496094 -121.06554687 167.81960938 -121.5078125 166.66015625 C-125.50616534 154.49807609 -126.44088011 142.57603824 -126.33203125 129.8828125 C-126.32865753 129.11623322 -126.32528381 128.34965393 -126.32180786 127.55984497 C-126.24641801 115.71438865 -125.61994632 104.46849059 -121.89453125 93.1328125 C-121.6531543 92.38870117 -121.41177734 91.64458984 -121.16308594 90.87792969 C-115.56829541 74.19208271 -107.05452476 59.66687498 -95.89453125 46.1328125 C-95.30027344 45.38515625 -94.70601562 44.6375 -94.09375 43.8671875 C-75.26227345 21.03570758 -42.82191025 5.37035833 -13.89453125 1.1328125 C-12.27550903 0.87479858 -12.27550903 0.87479858 -10.6237793 0.61157227 C-7.03462267 0.1507974 -3.61601786 0.00352659 0 0 Z " fill="#FFFDFD" transform="translate(245.89453125,98.8671875)"/>
<path d="M0 0 C1.92875977 -0.00193359 1.92875977 -0.00193359 3.89648438 -0.00390625 C4.88902222 -0.00076416 4.88902222 -0.00076416 5.90161133 0.00244141 C7.90250053 0.0077713 9.90340922 0.00197583 11.90429688 -0.00390625 C22.65026288 0.00683435 32.25743655 0.47407319 42.48046875 3.8828125 C43.72026489 4.28814209 43.72026489 4.28814209 44.98510742 4.70166016 C61.92682904 10.32517975 79.28276497 18.31010872 92.10546875 31.1328125 C94.24290885 31.51875742 94.24290885 31.51875742 96.60546875 31.6328125 C100.88324653 31.91059028 100.88324653 31.91059028 103.10546875 34.1328125 C102.44546875 34.1328125 101.78546875 34.1328125 101.10546875 34.1328125 C101.10546875 38.83745797 101.67270169 39.29118621 104.85546875 42.5078125 C110.65931096 48.07251066 117.85961726 53.1328125 126.10546875 53.1328125 C126.43995112 50.08403382 126.43995112 50.08403382 124.41796875 48.2578125 C123.65484375 47.5565625 122.89171875 46.8553125 122.10546875 46.1328125 C121.32171875 45.3078125 120.53796875 44.4828125 119.73046875 43.6328125 C116.98573984 41.01878497 114.3044455 39.14147232 111.10546875 37.1328125 C114.10546875 36.1328125 114.10546875 36.1328125 115.90234375 36.84765625 C120.55426623 39.75975972 123.77003429 42.89928859 127.23046875 47.13671875 C129.91895018 49.99883128 133.02851529 51.90151144 136.3828125 53.90625 C136.95128906 54.31101563 137.51976562 54.71578125 138.10546875 55.1328125 C138.10546875 55.7928125 138.10546875 56.4528125 138.10546875 57.1328125 C127.43701145 57.68043293 119.15189697 55.83599551 110.10546875 50.1328125 C113.19323207 57.08027997 117.29994127 60.16855565 123.98046875 63.2578125 C135.21188554 68.47099079 140.78671099 74.40800204 147.10546875 85.1328125 C147.76546875 86.1228125 148.42546875 87.1128125 149.10546875 88.1328125 C149.10546875 89.1228125 149.10546875 90.1128125 149.10546875 91.1328125 C140.44619816 89.1982946 133.41406702 85.44141077 127.10546875 79.1328125 C127.36070312 79.9371875 127.36070312 79.9371875 127.62109375 80.7578125 C129.31634139 86.24031551 130.82315953 91.75821329 132.23046875 97.3203125 C132.48618652 98.31708008 132.48618652 98.31708008 132.74707031 99.33398438 C140.96727633 132.24749315 133.14466004 166.80990543 116.12890625 195.4609375 C112.29527109 201.41758177 108.03571769 206.72134285 103.18359375 211.87890625 C101.04973886 214.13879537 101.04973886 214.13879537 99.04296875 216.72265625 C81.61288914 238.4048319 47.81818548 252.09755816 21.10546875 256.1328125 C20.18588379 256.30409668 19.26629883 256.47538086 18.31884766 256.65185547 C12.54873178 257.51548776 6.74170206 257.31738747 0.91796875 257.3203125 C-0.34595703 257.33255859 -1.60988281 257.34480469 -2.91210938 257.35742188 C-10.47909458 257.36916577 -17.51827886 256.82571048 -24.89453125 255.1328125 C-26.1578125 254.84921875 -27.42109375 254.565625 -28.72265625 254.2734375 C-48.08154709 249.23482208 -69.72116755 240.80816935 -83.27734375 225.4296875 C-86.63324014 222.48451276 -88.79815305 222.3900575 -93.20703125 222.0703125 C-104.91434245 220.90961905 -111.32131512 215.84535903 -119.39453125 207.5703125 C-122.17412592 204.8602077 -125.146196 202.68848544 -128.3203125 200.46484375 C-129.09955078 199.80548828 -129.09955078 199.80548828 -129.89453125 199.1328125 C-129.89453125 198.4728125 -129.89453125 197.8128125 -129.89453125 197.1328125 C-120.20182327 197.29053408 -112.59461617 198.81463848 -103.89453125 203.1328125 C-106.77962072 196.40093707 -110.2232826 194.12376095 -116.64453125 191.1953125 C-128.47077903 185.725322 -135.18334524 177.90409942 -140.89453125 166.1328125 C-140.89453125 165.4728125 -140.89453125 164.8128125 -140.89453125 164.1328125 C-131.2853167 165.65808465 -125.34541501 170.114791 -117.89453125 176.1328125 C-118.22066406 175.29621094 -118.54679687 174.45960938 -118.8828125 173.59765625 C-119.31980469 172.43363281 -119.75679687 171.26960937 -120.20703125 170.0703125 C-120.63628906 168.94496094 -121.06554687 167.81960938 -121.5078125 166.66015625 C-125.50616534 154.49807609 -126.44088011 142.57603824 -126.33203125 129.8828125 C-126.32865753 129.11623322 -126.32528381 128.34965393 -126.32180786 127.55984497 C-126.24641801 115.71438865 -125.61994632 104.46849059 -121.89453125 93.1328125 C-121.6531543 92.38870117 -121.41177734 91.64458984 -121.16308594 90.87792969 C-115.56829541 74.19208271 -107.05452476 59.66687498 -95.89453125 46.1328125 C-95.30027344 45.38515625 -94.70601562 44.6375 -94.09375 43.8671875 C-75.26227345 21.03570758 -42.82191025 5.37035833 -13.89453125 1.1328125 C-12.27550903 0.87479858 -12.27550903 0.87479858 -10.6237793 0.61157227 C-7.03462267 0.1507974 -3.61601786 0.00352659 0 0 Z M-1.89453125 1.1328125 C-1.89453125 1.7928125 -1.89453125 2.4528125 -1.89453125 3.1328125 C-3.01927856 3.28314941 -3.01927856 3.28314941 -4.16674805 3.43652344 C-7.64013893 3.90736502 -11.11098343 4.39500924 -14.58203125 4.8828125 C-15.76087891 5.04007812 -16.93972656 5.19734375 -18.15429688 5.359375 C-38.6624555 8.28108527 -54.6992692 16.67455242 -70.89453125 29.1328125 C-71.43239258 29.54289551 -71.97025391 29.95297852 -72.52441406 30.37548828 C-80.07960356 36.19552569 -86.20693126 42.49078626 -91.89453125 50.1328125 C-92.52101563 50.968125 -93.1475 51.8034375 -93.79296875 52.6640625 C-115.65742834 82.83510718 -121.16591453 117.79792061 -115.89453125 154.1328125 C-116.20829646 152.59140284 -116.5204759 151.04967035 -116.83203125 149.5078125 C-117.00605469 148.64929688 -117.18007812 147.79078125 -117.359375 146.90625 C-117.53597656 145.99101562 -117.71257812 145.07578125 -117.89453125 144.1328125 C-118.17103516 142.71355469 -118.17103516 142.71355469 -118.453125 141.265625 C-119.34517986 134.9344038 -119.02403462 128.51199623 -118.89453125 122.1328125 C-118.87777344 121.00488281 -118.86101562 119.87695312 -118.84375 118.71484375 C-117.59966394 88.96341428 -104.37524185 63.658907 -85.89453125 41.1328125 C-84.55928309 39.4676795 -83.225215 37.80159538 -81.89453125 36.1328125 C-85.81455898 37.69534103 -88.3122453 40.37423957 -91.08203125 43.4453125 C-91.80604126 44.24763306 -91.80604126 44.24763306 -92.54467773 45.06616211 C-107.46361281 61.93072482 -116.80732371 81.32390769 -121.89453125 103.1328125 C-122.08958252 103.88473877 -122.28463379 104.63666504 -122.4855957 105.41137695 C-124.18482119 112.59129798 -124.16543003 119.73339582 -124.1003418 127.06469727 C-124.0820344 129.19494612 -124.07983323 131.3247585 -124.08007812 133.45507812 C-124.05464473 144.35368423 -123.28197915 153.79526518 -120.01953125 164.1953125 C-119.76300781 165.04158203 -119.50648437 165.88785156 -119.2421875 166.75976562 C-117.64524289 171.96387908 -115.85526722 177.05485856 -113.89453125 182.1328125 C-113.23453125 181.8028125 -112.57453125 181.4728125 -111.89453125 181.1328125 C-111.23453125 182.4528125 -110.57453125 183.7728125 -109.89453125 185.1328125 C-109.39953125 177.7078125 -109.39953125 177.7078125 -108.89453125 170.1328125 C-108.56453125 174.7528125 -108.23453125 179.3728125 -107.89453125 184.1328125 C-107.23453125 184.1328125 -106.57453125 184.1328125 -105.89453125 184.1328125 C-106.12011719 184.65488281 -106.34570312 185.17695313 -106.578125 185.71484375 C-107.90558794 189.64220819 -108.37351965 192.05957912 -106.64453125 195.93359375 C-104.83177747 198.75820794 -102.90533207 201.44635023 -100.89453125 204.1328125 C-100.42917969 204.865 -99.96382812 205.5971875 -99.484375 206.3515625 C-97.14655115 210.08902431 -97.14655115 210.08902431 -93.24609375 211.8125 C-92.47007812 211.91820312 -91.6940625 212.02390625 -90.89453125 212.1328125 C-91.10775137 207.84505916 -91.3382611 203.55867528 -91.58422852 199.27270508 C-91.66538414 197.81722817 -91.74196485 196.36148817 -91.8137207 194.90551758 C-91.91821083 192.80202331 -92.03960244 190.70005247 -92.1640625 188.59765625 C-92.23214111 187.3355835 -92.30021973 186.07351074 -92.37036133 184.77319336 C-92.95775439 180.69372532 -94.12249912 177.82888421 -95.89453125 174.1328125 C-96.55453125 174.1328125 -97.21453125 174.1328125 -97.89453125 174.1328125 C-97.23453125 170.8328125 -96.57453125 167.5328125 -95.89453125 164.1328125 C-94.40953125 166.1128125 -94.40953125 166.1128125 -92.89453125 168.1328125 C-92.88422379 167.55589157 -92.87391632 166.97897064 -92.86329651 166.38456726 C-92.75438481 160.33269835 -92.63986576 154.28095327 -92.5222168 148.22924805 C-92.47913686 145.97634494 -92.43744522 143.72341481 -92.3972168 141.47045898 C-92.33885522 138.21590053 -92.27535735 134.96147477 -92.2109375 131.70703125 C-92.19422501 130.71386398 -92.17751251 129.72069672 -92.16029358 128.69743347 C-92.04112252 122.96052486 -91.67899983 117.30083916 -91.11936951 111.59046936 C-90.62982439 106.23936083 -90.66850083 100.87699952 -90.64453125 95.5078125 C-90.62390625 94.34507812 -90.60328125 93.18234375 -90.58203125 91.984375 C-90.55050668 85.01744604 -91.27404349 79.60127964 -93.89453125 73.1328125 C-90.87314558 73.05131658 -87.8539922 72.99207829 -84.83203125 72.9453125 C-83.98447266 72.92017578 -83.13691406 72.89503906 -82.26367188 72.86914062 C-76.7011788 72.8047102 -72.97895241 73.66306398 -67.89453125 76.1328125 C-64.63399271 77.03915772 -61.36506064 77.87472367 -58.078125 78.6796875 C-49.56896138 82.56362476 -46.86223502 91.09232617 -43.64453125 99.3203125 C-42.78609627 101.46001279 -41.92675809 103.59935099 -41.06640625 105.73828125 C-40.51098145 107.14823364 -40.51098145 107.14823364 -39.94433594 108.58666992 C-39.01933006 110.83013186 -38.01307968 112.98071268 -36.89453125 115.1328125 C-34.13464343 112.71237074 -32.81881274 110.22880985 -31.30078125 106.90625 C-30.82769531 105.87371094 -30.35460937 104.84117187 -29.8671875 103.77734375 C-29.13822266 102.15892578 -29.13822266 102.15892578 -28.39453125 100.5078125 C-27.90855469 99.45207031 -27.42257813 98.39632812 -26.921875 97.30859375 C-21.90850085 87.11620657 -21.90850085 87.11620657 -19.89453125 76.1328125 C-19.17652344 75.84664063 -18.45851563 75.56046875 -17.71875 75.265625 C-15.9238349 74.54567288 -14.13403577 73.81272684 -12.3515625 73.0625 C-2.97573528 69.32324838 4.24294433 69.26106267 13.87890625 72.0859375 C16.75948337 73.44031411 18.14806905 74.58734211 20.10546875 77.1328125 C20.4950626 80.06509124 20.64270886 82.61994094 20.60717773 85.55053711 C20.61528221 86.82219223 20.61528221 86.82219223 20.62355042 88.11953735 C20.6360647 90.92509815 20.61951639 93.72963717 20.6015625 96.53515625 C20.60171755 98.49369867 20.60320761 100.45224139 20.60597229 102.41078186 C20.60735793 106.52244585 20.59478072 110.63376178 20.57202148 114.74536133 C20.54380501 119.98371408 20.54632601 125.22148115 20.5591116 130.45987606 C20.56611572 134.51028829 20.55822307 138.56056846 20.54585457 142.61096382 C20.54137392 144.54001926 20.54097326 146.46908907 20.54491997 148.39814568 C20.56791292 169.54878676 20.56791292 169.54878676 17.10546875 179.1328125 C13.82621579 182.41206546 9.75426927 181.66349325 5.29296875 181.7578125 C3.93848633 181.84482422 3.93848633 181.84482422 2.55664062 181.93359375 C-0.14411709 181.98518795 -2.30362341 181.90833767 -4.89453125 181.1328125 C-7.27312335 178.77457425 -8.54403798 176.17026884 -9.89453125 173.1328125 C-10.405 172.19953125 -10.91546875 171.26625 -11.44140625 170.3046875 C-11.8384375 169.50546875 -12.23546875 168.70625 -12.64453125 167.8828125 C-13.051875 167.07328125 -13.45921875 166.26375 -13.87890625 165.4296875 C-14.89453125 163.1328125 -14.89453125 163.1328125 -15.89453125 159.1328125 C-12.92453125 159.4628125 -9.95453125 159.7928125 -6.89453125 160.1328125 C-5.89502623 148.30439737 -5.77395473 136.55935866 -5.83203125 124.6953125 C-5.8370619 122.88476688 -5.84162201 121.07421989 -5.84570312 119.26367188 C-5.85657188 114.88668404 -5.873748 110.50976402 -5.89453125 106.1328125 C-6.55453125 106.1328125 -7.21453125 106.1328125 -7.89453125 106.1328125 C-8.19109619 106.76147217 -8.48766113 107.39013184 -8.79321289 108.0378418 C-11.67316246 114.13160775 -14.58220971 120.21054673 -17.51855469 126.27734375 C-18.66168029 128.64959304 -19.78434917 131.02994788 -20.90234375 133.4140625 C-25.89148015 143.531567 -25.89148015 143.531567 -31.9296875 145.6640625 C-37.31578844 146.949017 -37.31578844 146.949017 -40.89453125 146.1328125 C-49.98767785 139.11191359 -54.01958922 130.47555739 -57.51953125 119.8828125 C-58.1119806 118.10546446 -58.70818027 116.32936098 -59.30859375 114.5546875 C-59.56592285 113.77706055 -59.82325195 112.99943359 -60.08837891 112.19824219 C-60.90804566 109.88048341 -60.90804566 109.88048341 -62.89453125 107.1328125 C-63.55453125 107.1328125 -64.21453125 107.1328125 -64.89453125 107.1328125 C-68.31277756 124.91583198 -68.09643332 142.46694506 -67.6953125 160.49853516 C-67.66658877 162.46256397 -67.63793982 164.42659387 -67.609375 166.390625 C-67.57919785 167.29816528 -67.54902069 168.20570557 -67.51792908 169.14074707 C-67.46920664 173.3244597 -67.52837487 175.52968875 -69.74414062 179.17944336 C-72.32684343 181.5255157 -74.02900226 182.04328219 -77.45703125 182.5703125 C-78.40707031 182.73402344 -79.35710937 182.89773438 -80.3359375 183.06640625 C-82.89453125 183.1328125 -82.89453125 183.1328125 -85.89453125 181.1328125 C-85.39953125 182.3290625 -84.90453125 183.5253125 -84.39453125 184.7578125 C-81.727413 192.74658649 -82.22959773 201.27043123 -84.08203125 209.3828125 C-84.46333587 212.81455409 -84.1293458 213.82425454 -82.00390625 216.6171875 C-79.11205837 219.33992147 -76.07251664 221.76159636 -72.89453125 224.1328125 C-71.83296115 224.96567166 -70.7717626 225.79900462 -69.7109375 226.6328125 C-57.77220785 235.76955902 -43.46416943 244.18886314 -28.89453125 248.1328125 C-28.28851074 248.31038086 -27.68249023 248.48794922 -27.05810547 248.67089844 C-15.21802496 252.02789951 -3.43075918 252.55417197 8.79296875 252.6328125 C9.88810791 252.64834167 9.88810791 252.64834167 11.00537109 252.66418457 C38.48927923 252.97124148 62.13949562 242.34203682 83.10546875 225.1328125 C83.92917969 224.46378906 84.75289062 223.79476562 85.6015625 223.10546875 C91.55155038 218.06293136 96.37328078 212.31434218 101.10546875 206.1328125 C101.70101562 205.36453125 102.2965625 204.59625 102.91015625 203.8046875 C110.99382398 192.85262154 116.86719442 180.86969094 121.04296875 167.9453125 C121.32527344 167.0800293 121.60757813 166.21474609 121.8984375 165.32324219 C125.53381754 153.42360973 126.49389016 141.33578861 126.48046875 128.9453125 C126.48240234 127.07033081 126.48240234 127.07033081 126.484375 125.1574707 C126.36668671 114.75476209 124.89480229 105.13207514 122.10546875 95.1328125 C119.93704614 95.94170966 119.93704614 95.94170966 119.32763672 98.05053711 C119.08674316 98.87046143 118.84584961 99.69038574 118.59765625 100.53515625 C118.20126953 101.87030273 118.20126953 101.87030273 117.796875 103.23242188 C117.52746094 104.16892578 117.25804687 105.10542969 116.98046875 106.0703125 C116.70332031 107.00294922 116.42617188 107.93558594 116.140625 108.89648438 C114.6715256 113.44172305 114.6715256 113.44172305 114.10546875 118.1328125 C113.44546875 118.1328125 112.78546875 118.1328125 112.10546875 118.1328125 C109.93770548 109.61659964 108.78943975 101.48526795 108.73046875 92.6953125 C108.71693359 91.86805664 108.70339844 91.04080078 108.68945312 90.18847656 C108.73066988 84.49827466 109.978738 80.39307739 112.10546875 75.1328125 C111.94192873 70.30838187 110.94879845 67.04239083 108.10546875 63.1328125 C107.77546875 63.1328125 107.44546875 63.1328125 107.10546875 63.1328125 C107.03199219 64.53080078 107.03199219 64.53080078 106.95703125 65.95703125 C106.45892534 74.45059589 105.56343584 82.73888547 104.10546875 91.1328125 C103.77546875 90.4728125 103.44546875 89.8128125 103.10546875 89.1328125 C102.44546875 89.1328125 101.78546875 89.1328125 101.10546875 89.1328125 C100.69296875 90.2259375 100.28046875 91.3190625 99.85546875 92.4453125 C98.46018337 95.65122404 97.3551091 97.55441576 94.10546875 99.1328125 C89.53539333 99.49561793 86.80753325 98.77391357 82.79296875 96.6328125 C77.74623012 94.23937277 73.65433723 92.85697778 68.10546875 94.1328125 C64.34181598 95.78103285 61.09604275 97.52795398 58.90234375 101.08203125 C57.69015064 104.20164588 57.80507767 106.82851067 58.10546875 110.1328125 C60.27253049 112.97577453 62.65447989 113.92052703 65.98046875 115.0703125 C66.955 115.410625 67.92953125 115.7509375 68.93359375 116.1015625 C72.18226675 117.15778131 75.45067455 118.11563062 78.73046875 119.0703125 C84.35357181 120.78256071 89.21307726 122.8744221 94.10546875 126.1328125 C94.73066406 126.53886719 95.35585938 126.94492188 96 127.36328125 C102.40835503 132.12417246 106.24306936 139.36497587 107.65234375 147.15625 C108.05290465 155.63478907 105.57761798 163.42861032 100.53125 170.265625 C91.94951258 179.50749607 80.2285827 183.05511042 67.90942383 183.53686523 C56.9168052 183.70560347 46.00240546 182.09457419 37.10546875 175.1328125 C34.11735222 171.74856268 32.85379577 169.35467382 32.8984375 164.8984375 C33.00758287 163.39144234 33.13956137 161.88594699 33.29296875 160.3828125 C33.35033203 159.61582031 33.40769531 158.84882813 33.46679688 158.05859375 C33.92089844 152.50195312 33.92089844 152.50195312 35.10546875 150.1328125 C35.66234375 151.0403125 36.21921875 151.9478125 36.79296875 152.8828125 C40.14725326 157.59694208 43.59507466 160.39033653 49.10546875 162.1328125 C52.04679401 162.4667461 54.95985204 162.50292709 57.91796875 162.5078125 C58.68689453 162.53230469 59.45582031 162.55679688 60.24804688 162.58203125 C66.86695471 162.61554471 72.09257681 160.76909294 77.10546875 156.3828125 C78.57993774 153.06525728 79.31189924 149.62260012 78.10546875 146.1328125 C72.60638313 141.51429941 65.76105331 139.64024196 59.06835938 137.30859375 C48.05813015 133.31211141 39.21337089 127.52903301 33.73046875 116.9453125 C30.91118912 109.99187913 30.84708179 102.38724834 33.73046875 95.4453125 C34.48849678 93.9897934 35.28130012 92.55192787 36.10546875 91.1328125 C36.72421875 89.99005859 36.72421875 89.99005859 37.35546875 88.82421875 C42.0278472 80.95285391 49.51648795 75.07736594 58.390625 72.56640625 C70.78292478 70.58720441 82.96512531 72.58014955 95.10546875 75.1328125 C95.10546875 74.4728125 95.10546875 73.8128125 95.10546875 73.1328125 C95.76546875 73.1328125 96.42546875 73.1328125 97.10546875 73.1328125 C97.37359375 73.8753125 97.64171875 74.6178125 97.91796875 75.3828125 C99.04776296 77.99917804 100.31440077 79.93468361 102.10546875 82.1328125 C101.64724407 78.66339704 101.21415192 75.45886201 100.10546875 72.1328125 C99.91193309 70.22487493 99.76304813 68.31225421 99.640625 66.3984375 C99.56263672 65.26664062 99.48464844 64.13484375 99.40429688 62.96875 C99.24778687 60.59393703 99.09410242 58.21893601 98.94335938 55.84375 C98.536204 50.00454615 98.10477553 44.65119431 96.10546875 39.1328125 C95.86054688 38.43414062 95.615625 37.73546875 95.36328125 37.015625 C93.41282993 34.09600533 90.73592209 32.12177069 87.98046875 30.0078125 C87.36083252 29.52989258 86.74119629 29.05197266 86.1027832 28.55957031 C59.62007814 8.48498514 31.13333011 0.33267589 -1.89453125 1.1328125 Z " fill="#FF6904" transform="translate(245.89453125,98.8671875)"/>
<path d="M0 0 C3.63692 2.84379725 4.88304052 4.26741232 5.62145996 8.89257812 C5.64497502 10.43862466 5.64106544 11.98524043 5.61523438 13.53125 C5.62078339 14.37916611 5.6263324 15.22708221 5.63204956 16.10069275 C5.64384782 18.90103916 5.61955335 21.69976681 5.59375 24.5 C5.59203761 26.45711188 5.59210589 28.41422606 5.59387207 30.37133789 C5.59221825 34.47711086 5.57352129 38.58233827 5.54199219 42.68798828 C5.50252438 47.91848437 5.49792243 53.14825919 5.50545502 58.37887573 C5.50854601 62.42501278 5.49632563 66.4709916 5.47932434 70.51708984 C5.47234966 72.44334925 5.469163 74.3696266 5.47001648 76.29589844 C5.45222069 102.75056228 5.45222069 102.75056228 0.52842712 108.81140137 C-2.65292164 111.2854132 -7.07701504 110.51092848 -10.9375 110.5 C-11.84435547 110.52835937 -12.75121094 110.55671875 -13.68554688 110.5859375 C-20.30630783 110.60542466 -20.30630783 110.60542466 -23.39453125 107.91015625 C-23.92433594 106.94980469 -24.45414062 105.98945313 -25 105 C-25.63421875 103.87464844 -26.2684375 102.74929688 -26.921875 101.58984375 C-27.53753121 100.37556011 -28.14684744 99.15804263 -28.75 97.9375 C-29.06582031 97.32583984 -29.38164062 96.71417969 -29.70703125 96.08398438 C-31.38785446 92.71869981 -32 90.84710026 -32 87 C-29.03 87.33 -26.06 87.66 -23 88 C-23.00580078 87.15429443 -23.01160156 86.30858887 -23.01757812 85.43725586 C-23.05854001 74.47190506 -22.80167777 63.52312144 -22.5 52.5625 C-22.45164099 50.75195798 -22.40346282 48.94141111 -22.35546875 47.13085938 C-22.23905737 42.75384783 -22.1202219 38.37690847 -22 34 C-22.66 34 -23.32 34 -24 34 C-24.10272217 34.69222656 -24.20544434 35.38445312 -24.3112793 36.09765625 C-25.12155682 39.51225361 -26.45362827 42.29616108 -28.01953125 45.4375 C-28.31937424 46.04005615 -28.61921722 46.6426123 -28.92814636 47.26342773 C-29.56153474 48.53223809 -30.19793126 49.79955075 -30.8371582 51.06542969 C-31.80734812 52.98978136 -32.76460409 54.9201785 -33.72070312 56.8515625 C-34.34037698 58.08892701 -34.96079557 59.32591889 -35.58203125 60.5625 C-36.14124268 61.67753906 -36.7004541 62.79257813 -37.27661133 63.94140625 C-40.63236618 69.89705106 -43.39213139 72.87204231 -50 75 C-54.2084396 75.44400968 -56.23386385 75.54473486 -59.73046875 73.05859375 C-60.94669922 71.76115234 -60.94669922 71.76115234 -62.1875 70.4375 C-63.00605469 69.59058594 -63.82460937 68.74367188 -64.66796875 67.87109375 C-70.31183359 60.92261694 -72.72185298 53.43111011 -75.44335938 45.03125 C-75.73146484 44.17015625 -76.01957031 43.3090625 -76.31640625 42.421875 C-76.56849854 41.64424805 -76.82059082 40.86662109 -77.08032227 40.06542969 C-78.07011271 37.84253955 -79.18342722 36.59367456 -81 35 C-81.09087891 36.35931641 -81.09087891 36.35931641 -81.18359375 37.74609375 C-81.26738281 38.96425781 -81.35117188 40.18242187 -81.4375 41.4375 C-81.51871094 42.63246094 -81.59992188 43.82742187 -81.68359375 45.05859375 C-81.90052741 47.76089076 -82.17680583 50.39357668 -82.5246582 53.07568359 C-83.11140175 58.31293285 -83.03845058 63.46877068 -82.921875 68.73046875 C-82.89463949 70.7701667 -82.86863414 72.80988138 -82.84375 74.84960938 C-82.8004134 78.02967868 -82.74951766 81.20886458 -82.67773438 84.38842773 C-82.61107314 87.4817472 -82.57636092 90.57410066 -82.546875 93.66796875 C-82.51793152 94.6149614 -82.48898804 95.56195404 -82.45916748 96.53764343 C-82.44128212 100.9599492 -82.53413828 104.03627755 -85.35180664 107.57958984 C-88.26142236 110.23893623 -89.82539204 110.92641614 -93.6875 111.4375 C-94.64011719 111.58058594 -95.59273437 111.72367187 -96.57421875 111.87109375 C-99 112 -99 112 -101 111 C-100.67 111.53625 -100.34 112.0725 -100 112.625 C-98.77300796 115.5391061 -98.85766714 117.86867708 -99 121 C-101 120 -101 120 -101.640625 118.28515625 C-101.84171875 117.55167969 -102.0428125 116.81820312 -102.25 116.0625 C-103.97391239 110.50667872 -106.86257347 105.8635188 -110 101 C-109.50886719 102.02673828 -109.50886719 102.02673828 -109.0078125 103.07421875 C-107.83151788 106.48912059 -107.80222854 109.21031284 -107.875 112.8125 C-107.89304688 113.97394531 -107.91109375 115.13539063 -107.9296875 116.33203125 C-107.96449219 117.65267578 -107.96449219 117.65267578 -108 119 C-108.33 119 -108.66 119 -109 119 C-109.13277344 118.09636719 -109.26554688 117.19273437 -109.40234375 116.26171875 C-109.66724609 114.49248047 -109.66724609 114.49248047 -109.9375 112.6875 C-110.11152344 111.51574219 -110.28554687 110.34398437 -110.46484375 109.13671875 C-110.92093031 105.98358597 -110.92093031 105.98358597 -112 103 C-112.66 102.67 -113.32 102.34 -114 102 C-113.67 98.37 -113.34 94.74 -113 91 C-112.01 91.99 -111.02 92.98 -110 94 C-109.9845388 93.17220284 -109.9845388 93.17220284 -109.96876526 92.3276825 C-109.85979992 86.53533197 -109.74528664 80.74310922 -109.62768555 74.95092773 C-109.58462244 72.7950307 -109.54292997 70.63910579 -109.50268555 68.4831543 C-109.44428225 65.36759069 -109.38079745 62.2521637 -109.31640625 59.13671875 C-109.29133751 57.71258919 -109.29133751 57.71258919 -109.26576233 56.25968933 C-109.14373915 50.63044968 -108.76943221 45.07647455 -108.22261047 39.47303772 C-107.74047661 34.11688706 -107.81549851 28.74833205 -107.8125 23.375 C-107.80025391 22.21226562 -107.78800781 21.04953125 -107.77539062 19.8515625 C-107.76416611 13.23658381 -108.27605262 7.39155193 -110 1 C-92.99808445 -1.56632688 -92.99808445 -1.56632688 -86.0078125 2.09765625 C-82.298667 3.76460685 -78.22967017 4.5148232 -74.28125 5.44921875 C-65.30146448 9.69323643 -62.06683525 18.52622836 -58.6875 27.3125 C-57.83976269 29.45542694 -56.98961141 31.59740093 -56.13671875 33.73828125 C-55.77280029 34.67712158 -55.40888184 35.61596191 -55.03393555 36.58325195 C-54.00665118 39.18796208 -54.00665118 39.18796208 -52 42 C-50.07239468 37.92174566 -48.16000533 33.83652303 -46.25 29.75 C-45.71117187 28.61046875 -45.17234375 27.4709375 -44.6171875 26.296875 C-42.01418176 20.70993584 -39.71797834 15.2910979 -37.984375 9.37109375 C-36.74893585 5.49186623 -36.30351778 4.25856746 -33.125 1.55078125 C-32.09375 1.14214844 -31.0625 0.73351562 -30 0.3125 C-28.96875 -0.12449219 -27.9375 -0.56148437 -26.875 -1.01171875 C-18.04815632 -4.04594627 -8.54349286 -4.20713178 0 0 Z " fill="#FF6803" transform="translate(262,171)"/>
<path d="M0 0 C2 1.8125 2 1.8125 4 4 C4 4.99 4 5.98 4 7 C4.99 6.67 5.98 6.34 7 6 C7.99 7.485 7.99 7.485 9 9 C9.66 8.34 10.32 7.68 11 7 C11.91145833 8.66015625 12.82291667 10.3203125 13.734375 11.98046875 C17.09513334 17.3431603 19.680122 19.62499492 25.6875 21.8125 C37.15178867 26.36224558 42.90178956 33.54351174 49 44 C49.66 44.99 50.32 45.98 51 47 C51 47.99 51 48.98 51 50 C42.34072941 48.0654821 35.30859827 44.30859827 29 38 C29.17015625 38.53625 29.3403125 39.0725 29.515625 39.625 C31.21087264 45.10750301 32.71769078 50.62540079 34.125 56.1875 C34.29547852 56.85201172 34.46595703 57.51652344 34.64160156 58.20117188 C42.86180758 91.11468065 35.03919129 125.67709293 18.0234375 154.328125 C14.18980234 160.28476927 9.93024894 165.58853035 5.078125 170.74609375 C2.94427011 173.00598287 2.94427011 173.00598287 0.9375 175.58984375 C-16.49257961 197.2720194 -50.28728327 210.96474566 -77 215 C-77.91958496 215.17128418 -78.83916992 215.34256836 -79.78662109 215.51904297 C-85.55673697 216.38267526 -91.36376669 216.18457497 -97.1875 216.1875 C-99.08338867 216.20586914 -99.08338867 216.20586914 -101.01757812 216.22460938 C-108.58456333 216.23635327 -115.62374761 215.69289798 -123 214 C-124.26328125 213.71640625 -125.5265625 213.4328125 -126.828125 213.140625 C-146.18701584 208.10200958 -167.8266363 199.67535685 -181.3828125 184.296875 C-184.73870889 181.35170026 -186.9036218 181.257245 -191.3125 180.9375 C-203.0198112 179.77680655 -209.42678387 174.71254653 -217.5 166.4375 C-220.27959467 163.7273952 -223.25166475 161.55567294 -226.42578125 159.33203125 C-226.94527344 158.89246094 -227.46476562 158.45289063 -228 158 C-228 157.34 -228 156.68 -228 156 C-218.30729202 156.15772158 -210.70008492 157.68182598 -202 162 C-202.680625 161.071875 -203.36125 160.14375 -204.0625 159.1875 C-204.701875 158.135625 -205.34125 157.08375 -206 156 C-205.67 155.01 -205.34 154.02 -205 153 C-204.65219482 153.47945068 -204.30438965 153.95890137 -203.94604492 154.45288086 C-202.36741723 156.62004241 -200.77765168 158.77878197 -199.1875 160.9375 C-198.64029297 161.69224609 -198.09308594 162.44699219 -197.52929688 163.22460938 C-196.99755859 163.94326172 -196.46582031 164.66191406 -195.91796875 165.40234375 C-195.18743286 166.39995728 -195.18743286 166.39995728 -194.44213867 167.41772461 C-192.98347357 169.27669398 -192.98347357 169.27669398 -190 170 C-190.1093689 169.12275269 -190.1093689 169.12275269 -190.22094727 168.2277832 C-191.09946985 160.49845209 -191.03661744 152.89407676 -190.87304688 145.12695312 C-190.85661133 143.66225586 -190.85661133 143.66225586 -190.83984375 142.16796875 C-190.82300537 141.29422607 -190.80616699 140.4204834 -190.78881836 139.52026367 C-190.88071574 136.91785334 -190.88071574 136.91785334 -192.07250977 134.36450195 C-193 132 -193 132 -192 129 C-190.51011757 131.72344582 -189.03506263 134.45465614 -187.5625 137.1875 C-187.14162109 137.95642578 -186.72074219 138.72535156 -186.28710938 139.51757812 C-184.24987575 143.31498161 -182.47990505 146.64595236 -182 151 C-181.34 150.34 -180.68 149.68 -180 149 C-179.97244336 151.12492345 -179.95335853 153.24995705 -179.9375 155.375 C-179.92332031 156.65503906 -179.90914062 157.93507813 -179.89453125 159.25390625 C-179.98554225 162.48648225 -180.42727647 165.18016672 -181.125 168.3125 C-181.47869719 171.54856533 -181.28894491 172.60819883 -179.33203125 175.26171875 C-176.68530952 177.73573433 -173.92545823 179.86272914 -171 182 C-169.97132813 182.80308594 -168.94265625 183.60617187 -167.8828125 184.43359375 C-155.90765596 193.59148808 -141.6150183 202.0437664 -127 206 C-126.39397949 206.17756836 -125.78795898 206.35513672 -125.16357422 206.53808594 C-113.32349371 209.89508701 -101.53622793 210.42135947 -89.3125 210.5 C-88.21736084 210.51552917 -88.21736084 210.51552917 -87.10009766 210.53137207 C-59.57463007 210.83889329 -36.02474988 200.17115691 -15 183 C-14.24976563 182.40445313 -13.49953125 181.80890625 -12.7265625 181.1953125 C-7.01091365 176.47368953 -2.50445801 170.86151795 2 165 C2.59683594 164.23042969 3.19367188 163.46085938 3.80859375 162.66796875 C11.88842229 151.71448295 17.76196147 139.73614863 21.9375 126.8125 C22.21980469 125.9472168 22.50210938 125.08193359 22.79296875 124.19042969 C26.43491612 112.26930051 27.38840172 100.16250676 27.375 87.75 C27.37693359 85.87115112 27.37693359 85.87115112 27.37890625 83.9543457 C27.26302108 73.72155308 25.73905688 64.84348565 23 55 C19.535 65.89 19.535 65.89 16 77 C15.34 77 14.68 77 14 77 C10.63599574 68.66311988 9.80367712 61.00644948 9.75 52.0625 C9.7190625 50.77956055 9.7190625 50.77956055 9.6875 49.47070312 C9.6515156 43.57375983 10.77687052 39.44283423 13 34 C12.77503019 29.50060382 12.03137169 27.06274339 10 23 C9.67 27.62 9.34 32.24 9 37 C7.68 37 6.36 37 5 37 C3.25526113 31.67432529 2.67165541 26.89518838 2.5 21.3125 C2.19725755 14.08387315 1.43479663 7.10433284 0 0 Z " fill="#FF761B" transform="translate(344,140)"/>
<path d="M0 0 C1.92875977 -0.00193359 1.92875977 -0.00193359 3.89648438 -0.00390625 C4.88902222 -0.00076416 4.88902222 -0.00076416 5.90161133 0.00244141 C7.90250053 0.0077713 9.90340922 0.00197583 11.90429688 -0.00390625 C22.65026288 0.00683435 32.25743655 0.47407319 42.48046875 3.8828125 C43.72026489 4.28814209 43.72026489 4.28814209 44.98510742 4.70166016 C61.92682904 10.32517975 79.28276497 18.31010872 92.10546875 31.1328125 C94.24290885 31.51875742 94.24290885 31.51875742 96.60546875 31.6328125 C100.88324653 31.91059028 100.88324653 31.91059028 103.10546875 34.1328125 C102.44546875 34.1328125 101.78546875 34.1328125 101.10546875 34.1328125 C101.10546875 38.83745797 101.67270169 39.29118621 104.85546875 42.5078125 C110.65931096 48.07251066 117.85961726 53.1328125 126.10546875 53.1328125 C126.43995112 50.08403382 126.43995112 50.08403382 124.41796875 48.2578125 C123.65484375 47.5565625 122.89171875 46.8553125 122.10546875 46.1328125 C121.32171875 45.3078125 120.53796875 44.4828125 119.73046875 43.6328125 C116.98573984 41.01878497 114.3044455 39.14147232 111.10546875 37.1328125 C114.10546875 36.1328125 114.10546875 36.1328125 115.90234375 36.84765625 C120.55426623 39.75975972 123.77003429 42.89928859 127.23046875 47.13671875 C129.91895018 49.99883128 133.02851529 51.90151144 136.3828125 53.90625 C136.95128906 54.31101563 137.51976562 54.71578125 138.10546875 55.1328125 C138.10546875 55.7928125 138.10546875 56.4528125 138.10546875 57.1328125 C126.8290463 57.71164027 118.3586704 55.67208629 109.10546875 49.1328125 C108.11546875 50.1228125 108.11546875 50.1228125 107.10546875 51.1328125 C106.65171875 50.6378125 106.19796875 50.1428125 105.73046875 49.6328125 C104.22911356 47.90671913 104.22911356 47.90671913 102.10546875 48.1328125 C100.48046875 45.6328125 100.48046875 45.6328125 99.10546875 43.1328125 C99.41484375 44.4115625 99.72421875 45.6903125 100.04296875 47.0078125 C101.23104661 52.8561676 101.51683696 58.67536922 101.76342773 64.62255859 C101.95909286 69.19206115 102.381489 73.61541821 103.10546875 78.1328125 C103.76546875 78.1328125 104.42546875 78.1328125 105.10546875 78.1328125 C105.10546875 78.7928125 105.10546875 79.4528125 105.10546875 80.1328125 C104.44546875 80.1328125 103.78546875 80.1328125 103.10546875 80.1328125 C103.10546875 81.7828125 103.10546875 83.4328125 103.10546875 85.1328125 C100.79189687 81.66245468 100.61702777 79.22528466 100.10546875 75.1328125 C99.77546875 74.1428125 99.44546875 73.1528125 99.10546875 72.1328125 C98.91191639 70.21313637 98.76303969 68.28880289 98.640625 66.36328125 C98.56263672 65.22697266 98.48464844 64.09066406 98.40429688 62.91992188 C98.2475275 60.53210406 98.09385006 58.14408112 97.94335938 55.75585938 C97.82444336 54.0455957 97.82444336 54.0455957 97.703125 52.30078125 C97.60269897 50.74266724 97.60269897 50.74266724 97.50024414 49.15307617 C97.08131822 45.94804677 96.22007208 43.16002199 95.10546875 40.1328125 C94.77546875 40.1328125 94.44546875 40.1328125 94.10546875 40.1328125 C94.10546875 38.4828125 94.10546875 36.8328125 94.10546875 35.1328125 C93.54472656 34.88660156 92.98398437 34.64039063 92.40625 34.38671875 C89.6944605 32.90881649 87.62232375 31.09910557 85.29296875 29.0703125 C62.38310857 10.16588483 33.91335088 2.03299801 4.5234375 1.8671875 C2.1268775 1.97800196 2.1268775 1.97800196 0.31933594 3.09130859 C-2.38348213 4.36283725 -4.77247031 4.68300088 -7.734375 5.0625 C-8.88099609 5.21847656 -10.02761719 5.37445313 -11.20898438 5.53515625 C-13.588781 5.84562028 -15.96898126 6.15300878 -18.34960938 6.45703125 C-38.84371386 9.26256809 -54.69938988 17.78432347 -70.89453125 30.1328125 C-72.38146484 31.2465625 -72.38146484 31.2465625 -73.8984375 32.3828125 C-80.58281753 37.58900557 -85.8297041 43.35728472 -90.89453125 50.1328125 C-91.52230469 50.96941406 -92.15007812 51.80601562 -92.796875 52.66796875 C-113.06104934 80.64760553 -120.8110115 114.7719912 -115.43066406 148.84106445 C-114.69146369 153.82821116 -114.69146369 153.82821116 -116.89453125 157.1328125 C-119.05399613 145.3071715 -120.38517405 134.18501247 -119.89453125 122.1328125 C-119.87519531 121.02164063 -119.85585937 119.91046875 -119.8359375 118.765625 C-118.67804348 88.94108204 -105.30549091 63.73905641 -86.89453125 41.1328125 C-85.88589451 39.80600065 -84.88141193 38.47588521 -83.89453125 37.1328125 C-102.4357799 56.30151457 -114.81479238 77.06891686 -120.89453125 103.1328125 C-121.08958252 103.88473877 -121.28463379 104.63666504 -121.4855957 105.41137695 C-123.18482119 112.59129798 -123.16543003 119.73339582 -123.1003418 127.06469727 C-123.0820344 129.19494612 -123.07983323 131.3247585 -123.08007812 133.45507812 C-123.05457012 144.41976169 -122.25787503 153.86368269 -118.95703125 164.3203125 C-118.69212891 165.18333984 -118.42722656 166.04636719 -118.15429688 166.93554688 C-116.79181654 171.35431064 -115.37833674 175.75307745 -113.89453125 180.1328125 C-113.23453125 179.1428125 -112.57453125 178.1528125 -111.89453125 177.1328125 C-111.39953125 179.1128125 -111.39953125 179.1128125 -110.89453125 181.1328125 C-110.84554687 180.37355469 -110.7965625 179.61429688 -110.74609375 178.83203125 C-110.67132813 177.83816406 -110.5965625 176.84429687 -110.51953125 175.8203125 C-110.44992188 174.83417969 -110.3803125 173.84804688 -110.30859375 172.83203125 C-109.89453125 170.1328125 -109.89453125 170.1328125 -107.89453125 167.1328125 C-107.89453125 172.7428125 -107.89453125 178.3528125 -107.89453125 184.1328125 C-107.23453125 184.1328125 -106.57453125 184.1328125 -105.89453125 184.1328125 C-106.00809415 185.77947453 -106.13570506 187.42517332 -106.26953125 189.0703125 C-106.37394531 190.44509766 -106.37394531 190.44509766 -106.48046875 191.84765625 C-106.61710937 192.60175781 -106.75375 193.35585938 -106.89453125 194.1328125 C-107.55453125 194.4628125 -108.21453125 194.7928125 -108.89453125 195.1328125 C-123.93457165 189.18634566 -133.72679285 180.90618971 -140.89453125 166.1328125 C-140.89453125 165.4728125 -140.89453125 164.8128125 -140.89453125 164.1328125 C-131.2853167 165.65808465 -125.34541501 170.114791 -117.89453125 176.1328125 C-118.22066406 175.29621094 -118.54679687 174.45960938 -118.8828125 173.59765625 C-119.31980469 172.43363281 -119.75679687 171.26960937 -120.20703125 170.0703125 C-120.63628906 168.94496094 -121.06554687 167.81960938 -121.5078125 166.66015625 C-125.50616534 154.49807609 -126.44088011 142.57603824 -126.33203125 129.8828125 C-126.32865753 129.11623322 -126.32528381 128.34965393 -126.32180786 127.55984497 C-126.24641801 115.71438865 -125.61994632 104.46849059 -121.89453125 93.1328125 C-121.6531543 92.38870117 -121.41177734 91.64458984 -121.16308594 90.87792969 C-115.56829541 74.19208271 -107.05452476 59.66687498 -95.89453125 46.1328125 C-95.30027344 45.38515625 -94.70601562 44.6375 -94.09375 43.8671875 C-75.26227345 21.03570758 -42.82191025 5.37035833 -13.89453125 1.1328125 C-12.27550903 0.87479858 -12.27550903 0.87479858 -10.6237793 0.61157227 C-7.03462267 0.1507974 -3.61601786 0.00352659 0 0 Z " fill="#FF7418" transform="translate(245.89453125,98.8671875)"/>
<path d="M0 0 C2 1.8125 2 1.8125 4 4 C4 4.99 4 5.98 4 7 C4.99 6.67 5.98 6.34 7 6 C7.99 7.485 7.99 7.485 9 9 C9.66 8.34 10.32 7.68 11 7 C11.91145833 8.66015625 12.82291667 10.3203125 13.734375 11.98046875 C17.09513334 17.3431603 19.680122 19.62499492 25.6875 21.8125 C37.15178867 26.36224558 42.90178956 33.54351174 49 44 C49.66 44.99 50.32 45.98 51 47 C51 47.99 51 48.98 51 50 C41.35805076 47.84594751 32.62174329 43.43261494 27 35 C27.39932153 39.31267256 27.99388985 43.24717691 29.3125 47.375 C29.88224112 49.2478124 30.44371607 51.1231464 31 53 C31.35835938 54.2065625 31.71671875 55.413125 32.0859375 56.65625 C37.58383856 76.89819253 36.59655457 98.89100047 31 119 C30.79101074 119.7645752 30.58202148 120.52915039 30.36669922 121.31689453 C24.02022969 143.82665724 11.88319577 161.13677725 -4 178 C-4 174.21617802 -3.15203565 173.82751393 -0.5625 171.1875 C11.74692741 157.74717113 20.19757271 140.45322758 25 123 C25.29632324 121.94643311 25.29632324 121.94643311 25.59863281 120.87158203 C31.92771334 97.41462154 31.71679377 69.82969797 23 47 C22.66226562 48.16917969 22.32453125 49.33835938 21.9765625 50.54296875 C21.52617263 52.09118394 21.0756445 53.63935891 20.625 55.1875 C20.40328125 55.95642578 20.1815625 56.72535156 19.953125 57.51757812 C18.4415057 62.69709721 17.01802313 67.47296531 14 72 C14.66 72 15.32 72 16 72 C16 73.65 16 75.3 16 77 C15.34 77 14.68 77 14 77 C10.63599574 68.66311988 9.80367712 61.00644948 9.75 52.0625 C9.729375 51.20720703 9.70875 50.35191406 9.6875 49.47070312 C9.6515156 43.57375983 10.77687052 39.44283423 13 34 C12.77503019 29.50060382 12.03137169 27.06274339 10 23 C9.67 27.62 9.34 32.24 9 37 C7.68 37 6.36 37 5 37 C3.25526113 31.67432529 2.67165541 26.89518838 2.5 21.3125 C2.19725755 14.08387315 1.43479663 7.10433284 0 0 Z " fill="#FF7316" transform="translate(344,140)"/>
<path d="M0 0 C0.66 0.33 1.32 0.66 2 1 C1.03900391 2.01707031 1.03900391 2.01707031 0.05859375 3.0546875 C-21.26051962 25.99418057 -34.18899415 54.47655535 -35 86 C-35.03996094 87.29679687 -35.07992187 88.59359375 -35.12109375 89.9296875 C-35.64469255 106.20837391 -35.64469255 106.20837391 -30 121 C-29.67 121.66 -29.34 122.32 -29 123 C-26.69 115.74 -24.38 108.48 -22 101 C-19 102 -19 102 -18.05078125 103.73046875 C-14.39769432 115.88809669 -13.37792732 132.36310751 -19.3203125 143.87890625 C-20.27778379 146.86687701 -19.38146229 148.25010809 -18 151 C-17.34 152.32 -16.68 153.64 -16 155 C-15.67 149.39 -15.34 143.78 -15 138 C-13.68 138.33 -12.36 138.66 -11 139 C-8.53993659 143.97549803 -8.60831826 149.24783063 -8.4375 154.6875 C-8.36627987 156.46751661 -8.29337421 158.2474666 -8.21875 160.02734375 C-8.18394531 160.88054199 -8.14914063 161.73374023 -8.11328125 162.61279297 C-7.90084337 167.08955493 -7.48024364 171.54497389 -7 176 C-9.2109375 175.890625 -9.2109375 175.890625 -12 175 C-13.76426836 172.92507973 -15.18078453 171.02588438 -16.625 168.75 C-17.0065625 168.17636719 -17.388125 167.60273438 -17.78125 167.01171875 C-18.87559639 165.35510473 -19.93844408 163.67781497 -21 162 C-21.60199219 161.13503906 -22.20398438 160.27007812 -22.82421875 159.37890625 C-24.25954713 156.47486976 -24.05901648 155.26074233 -23.1875 152.1875 C-22.97480469 151.39730469 -22.76210937 150.60710937 -22.54296875 149.79296875 C-22.36378906 149.20128906 -22.18460938 148.60960937 -22 148 C-22.66 148 -23.32 148 -24 148 C-24.33 143.38 -24.66 138.76 -25 134 C-25.495 141.425 -25.495 141.425 -26 149 C-26.66 147.68 -27.32 146.36 -28 145 C-28.66 145.33 -29.32 145.66 -30 146 C-31.13109109 142.83547658 -32.25373549 139.66801718 -33.375 136.5 C-33.85066406 135.1696875 -33.85066406 135.1696875 -34.3359375 133.8125 C-43.06964075 109.06700746 -42.86339445 79.96864922 -35 55 C-34.62746094 53.80117187 -34.25492187 52.60234375 -33.87109375 51.3671875 C-26.76971235 31.2259873 -14.51096236 15.31099641 0 0 Z " fill="#FF7920" transform="translate(162,135)"/>
<path d="M0 0 C2 1 2 1 2.9296875 3.37890625 C4.8016813 9.68334816 6.56877223 16.00097917 8.1875 22.375 C8.43765869 23.35448608 8.43765869 23.35448608 8.69287109 24.35375977 C16.83014103 57.23318087 9.01405589 91.71941578 -7.9765625 120.328125 C-11.81019766 126.28476927 -16.06975106 131.58853035 -20.921875 136.74609375 C-23.05572989 139.00598287 -23.05572989 139.00598287 -25.0625 141.58984375 C-42.49257961 163.2720194 -76.28728327 176.96474566 -103 181 C-104.03640625 181.18433594 -105.0728125 181.36867188 -106.140625 181.55859375 C-112.85072198 182.59444206 -122.69756493 183.28367042 -128.83984375 180.0234375 C-131.76854804 178.63587778 -134.53933453 178.39257045 -137.75 178 C-142.97347292 177.3129879 -147.93072955 176.41939573 -153 175 C-152.01 174.01 -152.01 174.01 -151 173 C-147.8828125 173.20703125 -147.8828125 173.20703125 -144.125 173.8125 C-142.89007813 174.00457031 -141.65515625 174.19664062 -140.3828125 174.39453125 C-137 175 -137 175 -135.25415039 175.52294922 C-132.03343617 176.20455602 -128.829066 176.20326648 -125.55078125 176.23828125 C-124.45445625 176.25038887 -124.45445625 176.25038887 -123.33598328 176.26274109 C-121.78350166 176.27655957 -120.23098994 176.28729171 -118.6784668 176.29516602 C-117.12433674 176.30655217 -115.57024146 176.32678483 -114.01635742 176.35668945 C-86.04155331 176.89380089 -62.40734226 166.48362454 -41 149 C-40.24976563 148.40445313 -39.49953125 147.80890625 -38.7265625 147.1953125 C-33.01091365 142.47368953 -28.50445801 136.86151795 -24 131 C-23.40316406 130.23042969 -22.80632812 129.46085938 -22.19140625 128.66796875 C-14.11157771 117.71448295 -8.23803853 105.73614863 -4.0625 92.8125 C-3.78019531 91.9472168 -3.49789062 91.08193359 -3.20703125 90.19042969 C0.43491612 78.26930051 1.38840172 66.16250676 1.375 53.75 C1.37693359 51.87115112 1.37693359 51.87115112 1.37890625 49.9543457 C1.26302108 39.72155308 -0.26094312 30.84348565 -3 21 C-4.98 27.6 -6.96 34.2 -9 41 C-9.33 40.01 -9.66 39.02 -10 38 C-10.66 38 -11.32 38 -12 38 C-12 35.03 -12 32.06 -12 29 C-11.01 30.485 -11.01 30.485 -10 32 C-6.07990834 22.28954394 -3.97831106 13.42558355 -3 3 C-2.67 3 -2.34 3 -2 3 C-1.96132813 4.14662109 -1.96132813 4.14662109 -1.921875 5.31640625 C-1.50996772 13.0958369 -0.13875373 19.97339274 2.0625 27.39453125 C7.03905336 46.53352603 5.47920713 70.13933407 0 89 C-0.24137695 89.83176758 -0.48275391 90.66353516 -0.73144531 91.52050781 C-6.06024359 109.23624851 -14.41079939 123.69131188 -26 138 C-27.00702204 139.3280378 -28.01024617 140.6590432 -29 142 C-11.99437084 124.28432369 -0.99329505 104.7684093 5 81 C5.3403125 79.73285156 5.680625 78.46570313 6.03125 77.16015625 C11.10545403 55.14844708 9.60485943 29.32172987 0.91357422 8.38256836 C-0.1984561 5.4824337 -0.14322039 3.07923832 0 0 Z " fill="#FF7C24" transform="translate(370,174)"/>
<path d="M0 0 C18.4139448 -0.71228726 36.73636199 1.36047679 54 8 C54.67256836 8.25797363 55.34513672 8.51594727 56.03808594 8.78173828 C68.69455801 13.74861588 79.32853606 20.59828046 89.84375 29.23828125 C91.91975691 30.99784123 91.91975691 30.99784123 93.99853516 32.30664062 C99.27868404 36.77396347 100.18971576 45.01574304 100.7578125 51.55078125 C100.89641643 53.80374887 101.01868189 56.05777816 101.125 58.3125 C101.24547925 60.57981691 101.37285446 62.84678008 101.5078125 65.11328125 C101.55566895 66.10110596 101.60352539 67.08893066 101.65283203 68.10668945 C102.03251931 71.27101712 102.97647573 73.9909866 104 77 C103.625 79.375 103.625 79.375 103 81 C99 74.25 99 74.25 99 72 C98.34 72 97.68 72 97 72 C96.67 72.66 96.34 73.32 96 74 C91.71372443 64.62377219 90.62249048 55.52208587 92.765625 45.375 C93.32897664 41.9954563 93.32897664 41.9954563 91.47265625 39.515625 C65.58433812 15.17976679 34.97313428 5.09983622 0 3 C0 2.01 0 1.02 0 0 Z " fill="#FF7A21" transform="translate(244,100)"/>
<path d="M0 0 C0.99 0.33 1.98 0.66 3 1 C2.34773438 2.12792969 1.69546875 3.25585938 1.0234375 4.41796875 C-5.60586401 16.22609481 -9.92730797 27.82734143 -13 41 C-13.19505127 41.75192627 -13.39010254 42.50385254 -13.59106445 43.27856445 C-15.29028994 50.45848548 -15.27089878 57.60058332 -15.20581055 64.93188477 C-15.18750315 67.06213362 -15.18530198 69.191946 -15.18554688 71.32226562 C-15.16003887 82.28694919 -14.36334378 91.73087019 -11.0625 102.1875 C-10.79759766 103.05052734 -10.53269531 103.91355469 -10.25976562 104.80273438 C-8.89728529 109.22149814 -7.48380549 113.62026495 -6 118 C-5.34 117.01 -4.68 116.02 -4 115 C-3.67 116.32 -3.34 117.64 -3 119 C-2.95101562 118.24074219 -2.90203125 117.48148437 -2.8515625 116.69921875 C-2.77679688 115.70535156 -2.70203125 114.71148437 -2.625 113.6875 C-2.55539063 112.70136719 -2.48578125 111.71523438 -2.4140625 110.69921875 C-2 108 -2 108 0 105 C0 110.61 0 116.22 0 122 C0.66 122 1.32 122 2 122 C1.8864371 123.64666203 1.75882619 125.29236082 1.625 126.9375 C1.55539063 127.85402344 1.48578125 128.77054688 1.4140625 129.71484375 C1.27742188 130.46894531 1.14078125 131.22304688 1 132 C0.34 132.33 -0.32 132.66 -1 133 C-16.0400404 127.05353316 -25.8322616 118.77337721 -33 104 C-33 103.34 -33 102.68 -33 102 C-23.39078545 103.52527215 -17.45088376 107.9819785 -10 114 C-10.32613281 113.16339844 -10.65226562 112.32679688 -10.98828125 111.46484375 C-11.42527344 110.30082031 -11.86226562 109.13679688 -12.3125 107.9375 C-12.74175781 106.81214844 -13.17101562 105.68679688 -13.61328125 104.52734375 C-17.61163409 92.36526359 -18.54634886 80.44322574 -18.4375 67.75 C-18.43412628 66.98342072 -18.43075256 66.21684143 -18.42727661 65.42703247 C-18.27433321 41.39615267 -12.08066139 20.78314391 0 0 Z " fill="#FF7D27" transform="translate(138,161)"/>
<path d="M0 0 C3.41782615 1.70891308 3.80253751 5.47648383 5.00585938 8.94189453 C12.84311559 33.05031087 13.81077388 58.52818489 7 83 C6.79101074 83.7645752 6.58202148 84.52915039 6.36669922 85.31689453 C0.02022969 107.82665724 -12.11680423 125.13677725 -28 142 C-28 138.21617802 -27.15203565 137.82751393 -24.5625 135.1875 C-12.25307259 121.74717113 -3.80242729 104.45322758 1 87 C1.29632324 85.94643311 1.29632324 85.94643311 1.59863281 84.87158203 C7.23190917 63.99342439 8.46755859 37.60099873 0.90625 17.0234375 C-0.17034265 13.43170168 -0.19559923 10.36675906 -0.125 6.625 C-0.10695313 5.37976563 -0.08890625 4.13453125 -0.0703125 2.8515625 C-0.04710937 1.91054687 -0.02390625 0.96953125 0 0 Z " fill="#FFF5EE" transform="translate(368,176)"/>
<path d="M0 0 C0.66 0.33 1.32 0.66 2 1 C1.03900391 2.01707031 1.03900391 2.01707031 0.05859375 3.0546875 C-21.28098676 26.01620334 -34.14855408 54.46102399 -35 86 C-35.0515625 87.23878906 -35.103125 88.47757812 -35.15625 89.75390625 C-35.42575261 101.06178646 -34.77494924 113.30942638 -30.90625 124.03125 C-29.72877327 127.88850135 -29.78089318 131.37184047 -29.875 135.375 C-29.88402344 136.11105469 -29.89304688 136.84710938 -29.90234375 137.60546875 C-29.92569856 139.4037888 -29.96156164 141.20193911 -30 143 C-32.6504116 140.3495884 -33.3833894 137.36209238 -34.5 133.875 C-34.83209473 132.852854 -34.83209473 132.852854 -35.17089844 131.81005859 C-42.95930609 107.58267162 -42.63502777 79.24351614 -35 55 C-34.62746094 53.80117187 -34.25492187 52.60234375 -33.87109375 51.3671875 C-26.76971235 31.2259873 -14.51096236 15.31099641 0 0 Z " fill="#FFF6F0" transform="translate(162,135)"/>
<path d="M0 0 C2.93420174 2.79817914 5.35706536 5.68380667 7.6875 9 C8.28949219 9.845625 8.89148438 10.69125 9.51171875 11.5625 C10.89768607 13.83243074 11.39188121 15.46267676 12 18 C13.15910377 19.72618137 13.15910377 19.72618137 14.5625 21.25 C15.366875 22.1575 16.17125 23.065 17 24 C15.35 24 13.7 24 12 24 C12.66 24.66 13.32 25.32 14 26 C8.73146995 27.31713251 5.79296588 27.02927256 1.046875 24.37109375 C-3.6093745 21.25211746 -7.59691006 17.43816719 -11.5 13.4375 C-14.27959467 10.7273952 -17.25166475 8.55567294 -20.42578125 6.33203125 C-20.94527344 5.89246094 -21.46476562 5.45289063 -22 5 C-22 4.34 -22 3.68 -22 3 C-12.30729202 3.15772158 -4.70008492 4.68182598 4 9 C3.34 8.071875 2.68 7.14375 2 6.1875 C0 3 0 3 0 0 Z " fill="#FF7416" transform="translate(138,293)"/>
<path d="M0 0 C18.4139448 -0.71228726 36.73636199 1.36047679 54 8 C54.67256836 8.25797363 55.34513672 8.51594727 56.03808594 8.78173828 C68.69455801 13.74861588 79.32853606 20.59828046 89.84375 29.23828125 C91.97318136 31.02674903 91.97318136 31.02674903 94.265625 32.5625 C94.83796875 33.036875 95.4103125 33.51125 96 34 C96.25 36.6875 96.25 36.6875 96 39 C93 39 93 39 91.66796875 37.8203125 C91.17941406 37.26085937 90.69085938 36.70140625 90.1875 36.125 C76.54404053 21.96777009 57.5995302 12.60166755 39 7 C38.19409424 6.74597412 37.38818848 6.49194824 36.55786133 6.23022461 C28.8910467 3.94945138 21.25826941 3.06629772 13.3125 2.3125 C12.02666016 2.18294922 10.74082031 2.05339844 9.41601562 1.91992188 C6.27806991 1.60496078 3.13954675 1.29850169 0 1 C0 0.67 0 0.34 0 0 Z " fill="#FFEEE3" transform="translate(244,100)"/>
<path d="M0 0 C2 0 2 0 4.0625 2 C4.50980469 2.46019531 4.95710937 2.92039062 5.41796875 3.39453125 C27.98018983 26.29100746 56.71212201 35.82733492 88 39 C88 39.33 88 39.66 88 40 C57.5622044 41.40302259 29.27013094 30.38642633 6 11 C5.44538086 10.57372314 4.89076172 10.14744629 4.31933594 9.70825195 C2.82479883 8.53896799 1.40625355 7.27409463 0 6 C-0.375 2.6875 -0.375 2.6875 0 0 Z " fill="#FFF5EE" transform="translate(160,314)"/>
<path d="M0 0 C6.40709726 0.99369332 12.01913839 2.67608657 17 7 C17.70023843 8.3160123 18.36441914 9.65157158 19 11 C20.72660399 13.27634819 22.53110708 15.47539528 24.34375 17.68359375 C26.03526594 20.04932241 27.0358933 22.2667575 28 25 C21.16968326 25 16.45727897 23.93750046 11.375 19.125 C7.06225039 14.46359225 0 6.65890942 0 0 Z " fill="#FF751A" transform="translate(105,263)"/>
<path d="M0 0 C1.22589844 0.29197266 1.22589844 0.29197266 2.4765625 0.58984375 C3.41628906 0.82380859 3.41628906 0.82380859 4.375 1.0625 C4.375 1.7225 4.375 2.3825 4.375 3.0625 C6.26382917 4.47650565 6.26382917 4.47650565 8.625 5.875 C12.31396051 8.24771169 14.81356716 10.45752045 17.375 14.0625 C18.68994512 15.41397138 20.01764858 16.75362542 21.375 18.0625 C20.385 18.0625 19.395 18.0625 18.375 18.0625 C18.705 18.7225 19.035 19.3825 19.375 20.0625 C7.04577507 19.60586204 -0.59353467 11.70914139 -8.625 3.0625 C-7.965 2.7325 -7.305 2.4025 -6.625 2.0625 C-6.625 1.4025 -6.625 0.7425 -6.625 0.0625 C-3.99249612 -1.25375194 -2.82320944 -0.68563658 0 0 Z " fill="#FF802B" transform="translate(353.625,132.9375)"/>
<path d="M0 0 C4.67248931 2.82522609 7.65996398 5.67760044 11 10 C11.23262158 7.6715368 11.23262158 7.6715368 8.625 5.5625 C7.75875 4.716875 6.8925 3.87125 6 3 C5.34 2.01 4.68 1.02 4 0 C4.9075 0.309375 5.815 0.61875 6.75 0.9375 C9.75233632 2.01103242 9.75233632 2.01103242 11.9609375 2.3203125 C18.76600023 4.58866674 23.48864479 14.00491015 26.96875 19.8359375 C28 22 28 22 28 25 C26.37276701 24.54965877 24.74826336 24.08944646 23.125 23.625 C21.76761719 23.24214844 21.76761719 23.24214844 20.3828125 22.8515625 C16.46948514 21.45302912 13.91126128 17.91126128 11 15 C10.42507813 14.44828125 9.85015625 13.8965625 9.2578125 13.328125 C5.60904802 9.78898006 2.56084005 6.40464488 0 2 C0 1.34 0 0.68 0 0 Z " fill="#FF7D26" transform="translate(367,165)"/>
<path d="M0 0 C0.33 0 0.66 0 1 0 C1.03867187 1.14662109 1.03867187 1.14662109 1.078125 2.31640625 C1.49003228 10.0958369 2.86124627 16.97339274 5.0625 24.39453125 C7.33180688 33.12190728 7.18308573 41.78020867 7.1875 50.75 C7.19974609 52.04421875 7.21199219 53.3384375 7.22460938 54.671875 C7.23668007 62.65462618 6.61344009 70.17870061 5 78 C4.34 78 3.68 78 3 78 C3.06856201 77.22615967 3.13712402 76.45231934 3.20776367 75.6550293 C4.84535126 56.02890121 5.30594926 37.06825514 0 18 C-1.98 24.6 -3.96 31.2 -6 38 C-6.495 36.515 -6.495 36.515 -7 35 C-7.66 35 -8.32 35 -9 35 C-9 32.03 -9 29.06 -9 26 C-8.34 26.99 -7.68 27.98 -7 29 C-3.07990834 19.28954394 -0.97831106 10.42558355 0 0 Z " fill="#FF7A21" transform="translate(367,177)"/>
<path d="M0 0 C2.61690224 3.28316877 4.62213586 6.75137769 6.625 10.4375 C7.23601562 11.54996094 7.84703125 12.66242188 8.4765625 13.80859375 C13.23295669 23.77262979 11.34624616 34.88158899 8 45 C2.86197159 39.86197159 3.89570244 27.89430236 3.5625 20.75 C3.30086629 15.17760244 2.51536798 10.18386983 0.62109375 4.91796875 C0 3 0 3 0 0 Z " fill="#FFF5EF" transform="translate(151,269)"/>
<path d="M0 0 C4.45583369 7.99812825 4.27792413 18.07363825 4.57055664 27.03588867 C4.70691582 30.34774618 5.03484701 33.10379432 6.09375 36.2578125 C7.06720682 39.20335856 6.87042536 40.14057635 6 43 C4.68462636 40.56401192 3.37260857 38.1263175 2.0625 35.6875 C1.68931641 34.99720703 1.31613281 34.30691406 0.93164062 33.59570312 C0.57392578 32.92861328 0.21621094 32.26152344 -0.15234375 31.57421875 C-0.48226318 30.96151123 -0.81218262 30.34880371 -1.15209961 29.7175293 C-5.67111881 20.56368533 -2.80467891 9.26545711 0 0 Z " fill="#FFF6F0" transform="translate(341,138)"/>
<path d="M0 0 C0.33 0 0.66 0 1 0 C1 5.61 1 11.22 1 17 C1.66 17 2.32 17 3 17 C2.8864371 18.64666203 2.75882619 20.29236082 2.625 21.9375 C2.55539063 22.85402344 2.48578125 23.77054687 2.4140625 24.71484375 C2.27742188 25.46894531 2.14078125 26.22304688 2 27 C1.34 27.33 0.68 27.66 0 28 C-2.42965185 26.97218364 -4.7237552 25.89301452 -7.0625 24.6875 C-7.71283203 24.36587891 -8.36316406 24.04425781 -9.03320312 23.71289062 C-13.86880989 21.26238023 -13.86880989 21.26238023 -15 19 C-13.3603125 19.5259375 -13.3603125 19.5259375 -11.6875 20.0625 C-8.09079627 21.33039454 -8.09079627 21.33039454 -5 20 C-6.27045696 18.24972675 -7.54138106 16.49979256 -8.8125 14.75 C-9.52019531 13.77546875 -10.22789063 12.8009375 -10.95703125 11.796875 C-12.62154821 9.51810991 -14.30001823 7.25234178 -16 5 C-13.50638429 6.20381448 -11.31856917 7.45428722 -9 9 C-8.67 8.01 -8.34 7.02 -8 6 C-7.01 8.31 -6.02 10.62 -5 13 C-4.34 12.01 -3.68 11.02 -3 10 C-2.67 11.32 -2.34 12.64 -2 14 C-1.93941406 13.24074219 -1.87882813 12.48148437 -1.81640625 11.69921875 C-1.73261719 10.70535156 -1.64882812 9.71148437 -1.5625 8.6875 C-1.48128906 7.70136719 -1.40007812 6.71523438 -1.31640625 5.69921875 C-1 3 -1 3 0 0 Z " fill="#FF6F0F" transform="translate(137,266)"/>
<path d="M0 0 C0.99 0.33 1.98 0.66 3 1 C2.3503125 1.61488281 1.700625 2.22976563 1.03125 2.86328125 C-0.22171875 4.07564453 -0.22171875 4.07564453 -1.5 5.3125 C-2.75296875 6.51326172 -2.75296875 6.51326172 -4.03125 7.73828125 C-6.32828283 9.87737482 -6.32828283 9.87737482 -6 13 C-7.9086222 14.59304714 -9.74715482 15.95118419 -11.8125 17.3125 C-12.39692871 17.70550293 -12.98135742 18.09850586 -13.58349609 18.50341797 C-24.7038791 25.87786096 -24.7038791 25.87786096 -30 28 C-30.99 27.67 -31.98 27.34 -33 27 C-30.19223193 23.99634114 -27.39390267 21.86339344 -23.875 19.75 C-18.22000106 16.22882066 -13.10319583 12.27143556 -8 8 C-7.29230469 7.41605469 -6.58460938 6.83210938 -5.85546875 6.23046875 C-2.45409382 3.51560078 -2.45409382 3.51560078 0 0 Z " fill="#FF7112" transform="translate(338,314)"/>
<path d="M0 0 C7.67469851 -0.59036142 15.18450548 4.22058917 20.9375 9 C23.92467332 11.76752822 26.48643931 14.80092275 29 18 C20.34513967 16.56507551 13.94451976 11.3978483 7.359375 5.8671875 C5.00989235 4.00782871 2.56568426 2.53759092 0 1 C0 0.67 0 0.34 0 0 Z " fill="#FFF2E9" transform="translate(126,299)"/>
<path d="M0 0 C0.66 0 1.32 0 2 0 C4.42519616 4.77184345 4.39970429 9.39026737 4.5625 14.625 C4.63372129 16.41413079 4.70662702 18.20319536 4.78125 19.9921875 C4.81605469 20.85166992 4.85085937 21.71115234 4.88671875 22.59667969 C5.09799243 27.0789601 5.51917353 31.53956718 6 36 C4 35 4 35 2.9296875 32.578125 C-0.52667394 21.67138445 -0.42211109 11.34180023 0 0 Z " fill="#FFF5EE" transform="translate(149,275)"/>
<path d="M0 0 C0.33 0 0.66 0 1 0 C1.5701159 12.36888375 1.83735416 22.76309324 -4 34 C-4.33 34 -4.66 34 -5 34 C-5.6333981 23.05628835 -5.0104265 10.020853 0 0 Z " fill="#FFF5EF" transform="translate(143,249)"/>
<path d="M0 0 C5.48348755 5.00764772 6.7801909 10.29953315 7.12451172 17.66259766 C7.25361369 24.1102277 7.16633701 30.553801 7 37 C6.34 37 5.68 37 5 37 C3.25526113 31.67432529 2.67165541 26.89518838 2.5 21.3125 C2.19725755 14.08387315 1.43479663 7.10433284 0 0 Z " fill="#FFF5EE" transform="translate(344,140)"/>
<path d="M0 0 C10.18774192 1.55345001 19.99151974 9.72787785 27 17 C16.06465497 16.59498722 8.99131942 10.47200293 1.6171875 2.85546875 C0 1 0 1 0 0 Z " fill="#FFF7F1" transform="translate(346,136)"/>
<path d="M0 0 C0.33 0 0.66 0 1 0 C1.46386092 8.13045115 0.98968021 15.4111276 -0.875 23.3125 C-1.04870117 24.05943115 -1.22240234 24.8063623 -1.40136719 25.57592773 C-1.86127639 27.40387554 -2.42231115 29.20579119 -3 31 C-3.66 31.33 -4.32 31.66 -5 32 C-5.60504297 20.14115774 -4.91532846 10.91905108 0 0 Z " fill="#FFF8F3" transform="translate(361,169)"/>
<path d="M0 0 C0.33 0 0.66 0 1 0 C1 2.64 1 5.28 1 8 C1.66 8 2.32 8 3 8 C3.125 15.625 3.125 15.625 2 19 C1.85426942 20.47965926 1.75336732 21.96403843 1.68359375 23.44921875 C1.64169922 24.29677734 1.59980469 25.14433594 1.55664062 26.01757812 C1.51732422 26.89865234 1.47800781 27.77972656 1.4375 28.6875 C1.39431641 29.58017578 1.35113281 30.47285156 1.30664062 31.39257812 C1.20064647 33.59490108 1.09857949 35.79733473 1 38 C0.54367188 37.38511719 0.08734375 36.77023437 -0.3828125 36.13671875 C-1.50093551 34.65939197 -2.66924437 33.21921491 -3.875 31.8125 C-5.41167249 27.97081879 -4.33672795 25.92233344 -2.859375 22.18359375 C-0.99708945 17.45169547 -0.70920418 12.79211692 -0.4375 7.75 C-0.37272461 6.63238281 -0.37272461 6.63238281 -0.30664062 5.4921875 C-0.20103275 3.661651 -0.10005799 1.83084824 0 0 Z " fill="#FFF2EA" transform="translate(146,254)"/>
<path d="M0 0 C6.54637496 0.32095659 11.41941579 1.68740506 17.125 4.875 C17.8456665 5.26631104 18.56633301 5.65762207 19.30883789 6.06079102 C27.63138897 10.70908722 36.23576004 16.23576004 43 23 C45.20250992 23.46006346 45.20250992 23.46006346 47.625 23.625 C48.44226563 23.69976562 49.25953125 23.77453125 50.1015625 23.8515625 C50.72804688 23.90054688 51.35453125 23.94953125 52 24 C52 24.33 52 24.66 52 25 C43.70813464 27.02199176 43.70813464 27.02199176 40.15234375 24.89453125 C38.91761502 23.71042921 37.69944113 22.50897704 36.4921875 21.296875 C26.09694345 11.71630525 13.12252037 5.81213826 0 1 C0 0.67 0 0.34 0 0 Z " fill="#FF7B23" transform="translate(295,107)"/>
<path d="M0 0 C4.64898132 2.04186028 8.56437014 5.25324132 12.60351562 8.27929688 C16.58072173 11.18955347 20.40178539 13.21605758 25 15 C22.68164713 16.45970366 21.38987957 17.03077997 18.625 16.8125 C10.91602327 14.42638816 4.54409611 9.73664117 0 3.0625 C-0.33 2.381875 -0.66 1.70125 -1 1 C-0.67 0.67 -0.34 0.34 0 0 Z " fill="#FF761A" transform="translate(127,303)"/>
<path d="M0 0 C3.51094153 3.51094153 2.48503183 9.0036287 2.51953125 13.74902344 C2.34941056 22.92572585 -0.37173222 30.66362284 -4 39 C-4.33 39 -4.66 39 -5 39 C-5.23395119 34.16500869 -5.2475036 30.26149255 -3.625 25.6875 C-0.86636458 17.49003835 -0.69477351 8.5692891 0 0 Z " fill="#FFF1E7" transform="translate(364,170)"/>
<path d="M0 0 C0.33 0 0.66 0 1 0 C1.26100274 4.6110484 1.03949972 8.22512397 -0.375 12.625 C-3.11689219 21.76030903 -3.30225432 31.53345757 -4 41 C-7.96034775 33.86700894 -7.16609611 23.16835897 -5.40234375 15.35107422 C-3.90340615 10.11754536 -2.02708472 5.04961282 0 0 Z " fill="#FFF2E9" transform="translate(140,243)"/>
<path d="M0 0 C0.33 0 0.66 0 1 0 C1.05534912 0.74048584 1.11069824 1.48097168 1.16772461 2.24389648 C1.42266041 5.64189088 1.68006281 9.03969424 1.9375 12.4375 C2.02451172 13.60216797 2.11152344 14.76683594 2.20117188 15.96679688 C2.45561636 19.31227069 2.72386314 22.65625248 3 26 C3.09764648 27.25925293 3.09764648 27.25925293 3.19726562 28.54394531 C3.75910435 34.70544328 5.45263577 40.27060361 7.359375 46.1328125 C9.10083778 51.69748667 9.10083778 51.69748667 8 55 C5.96755372 51.95133058 5.07254974 49.48578667 4 46 C3.67 44.948125 3.34 43.89625 3 42.8125 C0.39112934 32.86618062 -0.26353725 23.59089807 -0.125 13.3125 C-0.11597656 12.02666016 -0.10695313 10.74082031 -0.09765625 9.41601562 C-0.0743189 6.27714268 -0.04158033 3.13867524 0 0 Z " fill="#FF7B23" transform="translate(120,218)"/>
<path d="M0 0 C6.31662882 7.44459825 8.68455115 13.42837878 10 23 C6.45157672 19.88168864 3.78365249 16.4732233 1.125 12.5625 C0.50882813 11.65628906 -0.10734375 10.75007813 -0.7421875 9.81640625 C-2.27530628 6.38355333 -1.99769865 4.57422969 -1 1 C-0.67 0.67 -0.34 0.34 0 0 Z " fill="#FFF4EC" transform="translate(140,285)"/>
<path d="M0 0 C9.61206897 9.06280788 9.61206897 9.06280788 10.4375 15.3125 C10 18 10 18 8 20 C3.206846 13.30460212 0.13660894 8.3331455 0 0 Z " fill="#FFF3EB" transform="translate(351,148)"/>
<path d="M0 0 C6.38944481 0.75169939 10.32473291 4.05836678 14.3125 8.875 C17.51992447 12.72966259 20.99059064 15.21140476 25.27734375 17.7734375 C25.84582031 18.17820313 26.41429687 18.58296875 27 19 C27 19.66 27 20.32 27 21 C24.36 21 21.72 21 19 21 C19 20.01 19 19.02 19 18 C17.35 17.34 15.7 16.68 14 16 C14.33 15.34 14.66 14.68 15 14 C14.443125 13.443125 13.88625 12.88625 13.3125 12.3125 C11.72902961 10.72902961 10.16736165 9.12353857 8.625 7.5 C6.63688782 5.60655983 4.95008701 4.21935062 2.6875 2.75 C1.800625 2.1725 0.91375 1.595 0 1 C0 0.67 0 0.34 0 0 Z " fill="#FF6C0A" transform="translate(357,135)"/>
<path d="M0 0 C0.99 0.495 0.99 0.495 2 1 C3.1964193 7.04506595 3.32718511 13.18527142 3.60546875 19.328125 C3.83317914 23.94514946 4.27141843 28.43422219 5 33 C5.66 33 6.32 33 7 33 C7 33.66 7 34.32 7 35 C6.34 35 5.68 35 5 35 C5 36.65 5 38.3 5 40 C2.68642812 36.52964218 2.51155902 34.09247216 2 30 C1.67 29.01 1.34 28.02 1 27 C0.84970012 24.93637009 0.75155552 22.86876085 0.68359375 20.80078125 C0.64169922 19.59228516 0.59980469 18.38378906 0.55664062 17.13867188 C0.51732422 15.87603516 0.47800781 14.61339844 0.4375 13.3125 C0.39431641 12.03826172 0.35113281 10.76402344 0.30664062 9.45117188 C0.2004514 6.30089148 0.09840467 3.15053161 0 0 Z " fill="#FF7F2A" transform="translate(344,144)"/>
<path d="M0 0 C1.32 0 2.64 0 4 0 C6.42857143 7.42857143 6.42857143 7.42857143 5 11 C5 10.01 5 9.02 5 8 C4.34 8 3.68 8 3 8 C1.68 14.6 0.36 21.2 -1 28 C-3.30916444 24.53625334 -3.02817882 23.0933536 -2.42578125 19.1015625 C-2 17 -2 17 -0.9375 13.625 C0.25478914 9.01481531 0.17137891 4.7319621 0 0 Z " fill="#FF8331" transform="translate(140,241)"/>
<path d="M0 0 C0.33 0.99 0.66 1.98 1 3 C-3.01302814 10.24457185 -8.50037073 16.79408151 -13.8125 23.125 C-14.26786133 23.66882324 -14.72322266 24.21264648 -15.19238281 24.77294922 C-17.58379756 27.56117341 -19.95257575 29.93996962 -23 32 C-21.66412374 29.04429311 -20.1731348 26.96105338 -17.9375 24.625 C-12.15736564 18.19051081 -7.64862143 10.62247502 -3.359375 3.13671875 C-2 1 -2 1 0 0 Z " fill="#FFEBDE" transform="translate(362,286)"/>
<path d="M0 0 C0.66 0.66 1.32 1.32 2 2 C1.69408018 6.28287751 0.93203953 10.31103957 -0.0078125 14.4921875 C-1.22244291 20.51862297 -1.4461845 26.49311857 -1.625 32.625 C-1.66367188 33.72457031 -1.70234375 34.82414062 -1.7421875 35.95703125 C-1.83543388 38.63786459 -1.92123267 41.3187089 -2 44 C-2.33 44 -2.66 44 -3 44 C-4.19847303 28.6139429 -4.14428025 14.92296622 0 0 Z " fill="#FF8B3E" transform="translate(124,192)"/>
<path d="M0 0 C0.66 0.33 1.32 0.66 2 1 C1.49012711 3.80430092 0.86257714 6.41906134 -0.02734375 9.1328125 C-1.12515391 13.49759987 -1.26115542 17.34277909 -1.1875 21.8125 C-1.18685547 22.57498047 -1.18621094 23.33746094 -1.18554688 24.12304688 C-1.23590624 28.19338106 -1.23590624 28.19338106 0 32 C-0.33 32.66 -0.66 33.32 -1 34 C-1.66 34 -2.32 34 -3 34 C-6.28846222 27.42307555 -4.95148455 14.96796237 -3.10546875 8.0078125 C-2.17725158 5.27235977 -1.19651532 2.62806044 0 0 Z " fill="#FF7C24" transform="translate(358,170)"/>
<path d="M0 0 C0.66 0.33 1.32 0.66 2 1 C0.70919469 4.87241594 -0.99733936 5.68158302 -4.3125 8 C-5.27800781 8.680625 -6.24351562 9.36125 -7.23828125 10.0625 C-8.14964844 10.701875 -9.06101563 11.34125 -10 12 C-11.33784572 12.99395503 -12.67312375 13.99144798 -14 15 C-14.66 14.67 -15.32 14.34 -16 14 C-15.34 13.01 -14.68 12.02 -14 11 C-13.67 10.01 -13.34 9.02 -13 8 C-10.56640625 6.2109375 -10.56640625 6.2109375 -7.5625 4.375 C-6.57378906 3.76398438 -5.58507812 3.15296875 -4.56640625 2.5234375 C-3.07095063 1.63572412 -1.55548643 0.77774321 0 0 Z " fill="#FF7112" transform="translate(185,117)"/>
<path d="M0 0 C4.86199676 2.96232437 8.46286927 6.332903 12.25 10.5625 C12.77851563 11.13935547 13.30703125 11.71621094 13.8515625 12.31054688 C16.10331812 14.78804957 18.14000228 17.21000342 20 20 C11.3560639 17.56889297 4.72078686 9.24345734 0 2 C0 1.34 0 0.68 0 0 Z " fill="#FFEFE5" transform="translate(367,165)"/>
<path d="M0 0 C4 4 4 4 5 7 C4.65891228 11.60468417 3.58259265 15.67424675 2 20 C1.01 20 0.02 20 -1 20 C-0.67 13.4 -0.34 6.8 0 0 Z " fill="#FFEFE5" transform="translate(353,162)"/>
<path d="M0 0 C0.90878906 0.19207031 1.81757813 0.38414062 2.75390625 0.58203125 C4.32819978 0.9372212 5.90005558 1.30425295 7.46484375 1.69921875 C15.64643143 3.72436421 24.06969545 4.33898476 32.4375 5.1875 C32.4375 5.5175 32.4375 5.8475 32.4375 6.1875 C23.05355923 6.62005041 14.27572838 6.28581085 5.0625 4.3125 C4.24869873 4.13879883 3.43489746 3.96509766 2.59643555 3.78613281 C-0.93719015 2.97703684 -3.52004287 2.21580475 -6.5625 0.1875 C-3.9533106 -1.1170947 -2.82605971 -0.61474538 0 0 Z " fill="#FFE8D8" transform="translate(215.5625,347.8125)"/>
<path d="M0 0 C8.37641318 2.61762912 14.44753234 8.70706661 19 16 C20.375 19 20.375 19 21 21 C15.84541373 16.83246216 11.47391797 12.3162737 7.08984375 7.34765625 C4.81442904 4.79153618 2.45802102 2.37873001 0 0 Z " fill="#FFECDF" transform="translate(112,267)"/>
<path d="M0 0 C0.66 0 1.32 0 2 0 C-1.58027659 8.01041681 -10.10524299 17.05262149 -18 21 C-18.66 20.34 -19.32 19.68 -20 19 C-18.92319498 17.86874978 -17.83824365 16.74525081 -16.75 15.625 C-16.14671875 14.99851562 -15.5434375 14.37203125 -14.921875 13.7265625 C-13 12 -13 12 -11.0546875 11.09375 C-8.1623203 9.55408685 -6.49045699 7.35836256 -4.375 4.875 C-2.95831173 3.21356825 -1.50857403 1.57846935 0 0 Z " fill="#FF7519" transform="translate(351,305)"/>
<path d="M0 0 C6.70821055 5.36656844 12.28806145 11.61667627 18 18 C17.34 18.33 16.68 18.66 16 19 C9.13838895 14.12063215 1.70248564 8.7252389 0 0 Z " fill="#FFEADC" transform="translate(110,268)"/>
<path d="M0 0 C0.66 0.33 1.32 0.66 2 1 C2 1.66 2 2.32 2 3 C-5.26 5.64 -12.52 8.28 -20 11 C-20.66 10.01 -21.32 9.02 -22 8 C-20.74703125 7.59007812 -19.4940625 7.18015625 -18.203125 6.7578125 C-16.55203054 6.21370183 -14.90099178 5.66942214 -13.25 5.125 C-12.425 4.85558594 -11.6 4.58617187 -10.75 4.30859375 C-9.95078125 4.04433594 -9.1515625 3.78007812 -8.328125 3.5078125 C-7.5949707 3.26691895 -6.86181641 3.02602539 -6.10644531 2.77783203 C-3.94832533 2.03688045 -3.94832533 2.03688045 -1.85449219 0.84326172 C-1.24250977 0.56498535 -0.63052734 0.28670898 0 0 Z " fill="#FF791F" transform="translate(304,340)"/>
<path d="M0 0 C0.33 0 0.66 0 1 0 C0.23945318 9.43078051 -1.38671563 18.68556572 -3 28 C-7.25134808 20.76121814 -3.5035401 11.23766934 -1.71875 3.58984375 C-1 1 -1 1 0 0 Z " fill="#FF7E28" transform="translate(132,188)"/>
<path d="M0 0 C4.17299566 1.39847704 6.88009569 3.36033171 10.125 6.3125 C10.97320312 7.07175781 11.82140625 7.83101562 12.6953125 8.61328125 C14.96179762 10.96043788 16.57561128 13.06772391 18 16 C17.67 16.66 17.34 17.32 17 18 C15.10092866 16.12818806 13.20573596 14.25269944 11.3125 12.375 C10.78205078 11.85292969 10.25160156 11.33085937 9.70507812 10.79296875 C6.24349806 7.35262538 3.07058135 3.7940764 0 0 Z " fill="#FFEDE2" transform="translate(371,165)"/>
<path d="M0 0 C0.33 0 0.66 0 1 0 C1.39367331 4.41521126 1.76170829 8.83219338 2.125 13.25 C2.23714844 14.50425781 2.34929687 15.75851562 2.46484375 17.05078125 C2.56152344 18.25605469 2.65820312 19.46132813 2.7578125 20.703125 C2.8520752 21.81333008 2.94633789 22.92353516 3.04345703 24.06738281 C2.99946174 27.03632326 2.56643052 28.52113688 1 31 C-3.21486644 22.57026712 -1.34490873 9.0781339 0 0 Z " fill="#FF7F2A" transform="translate(154,282)"/>
<path d="M0 0 C0.66 0.33 1.32 0.66 2 1 C1.03900391 2.01707031 1.03900391 2.01707031 0.05859375 3.0546875 C-4.9662533 8.46145288 -9.52254164 13.84035704 -13.625 20.00390625 C-15 22 -15 22 -17 24 C-17.66 24 -18.32 24 -19 24 C-14.71983691 14.80176491 -6.83439875 7.35694836 0 0 Z " fill="#FFE2CF" transform="translate(162,135)"/>
<path d="M0 0 C7.66668231 1.2169337 14.30459567 3.60922388 19.453125 9.7265625 C20.5625 11.375 20.5625 11.375 22 14 C18.01047651 12.62993233 15.31607269 10.79988983 12.125 8.0625 C8.19446879 4.82040015 4.79694211 2.6685016 0 1 C0 0.67 0 0.34 0 0 Z " fill="#FFEADC" transform="translate(349,134)"/>
<path d="M0 0 C4.03295336 1.78458186 7.44792892 4.36262002 11 6.9375 C11.61617187 7.38029297 12.23234375 7.82308594 12.8671875 8.27929688 C15.93544078 10.48830755 18.98614656 12.71700602 22 15 C12.5873116 14.29404837 5.97289429 7.79893286 0 1 C0 0.67 0 0.34 0 0 Z " fill="#FFEADC" transform="translate(127,303)"/>
<path d="M0 0 C0.33 0.66 0.66 1.32 1 2 C-0.17755859 2.29003906 -0.17755859 2.29003906 -1.37890625 2.5859375 C-6.9491275 3.96653221 -12.49622437 5.37388447 -18 7 C-18.66 6.34 -19.32 5.68 -20 5 C-17.42138975 3.96555751 -14.83825365 2.94727716 -12.25 1.9375 C-11.15558594 1.49567383 -11.15558594 1.49567383 -10.0390625 1.04492188 C-8.97558594 0.6340332 -8.97558594 0.6340332 -7.890625 0.21484375 C-7.24125977 -0.04176025 -6.59189453 -0.29836426 -5.92285156 -0.56274414 C-3.58985871 -1.093266 -2.22160229 -0.85590716 0 0 Z " fill="#FF7E28" transform="translate(221,104)"/>
<path d="M0 0 C3.59690223 0.6021963 5.59498374 2.063197 8.375 4.375 C11.80482223 7.13586517 14.97300114 9.24464152 19 11 C18.01 11.66 17.02 12.32 16 13 C14.26847042 11.92044741 12.53988316 10.83617488 10.8125 9.75 C9.84957031 9.14671875 8.88664063 8.5434375 7.89453125 7.921875 C5.11318719 6.07515263 2.50087611 4.21284102 0 2 C0 1.34 0 0.68 0 0 Z " fill="#FF7B23" transform="translate(131,304)"/>
<path d="M0 0 C0.96661363 3.12180401 0.98988909 5.52083795 0.5625 8.75 C0.40974609 9.94882813 0.40974609 9.94882813 0.25390625 11.171875 C0.12822266 12.07679688 0.12822266 12.07679688 0 13 C0.66 13 1.32 13 2 13 C2 14.65 2 16.3 2 18 C1.34 18 0.68 18 0 18 C-3.42857143 9.57142857 -3.42857143 9.57142857 -3 5 C-2.34 5 -1.68 5 -1 5 C-0.67 3.35 -0.34 1.7 0 0 Z " fill="#FF6E0E" transform="translate(358,199)"/>
<path d="M0 0 C0.33 0 0.66 0 1 0 C1 2.64 1 5.28 1 8 C1.66 8 2.32 8 3 8 C3.25 15.625 3.25 15.625 1 19 C0.34 19 -0.32 19 -1 19 C-0.67 12.73 -0.34 6.46 0 0 Z " fill="#FFE7D7" transform="translate(146,254)"/>
<path d="M0 0 C0.66 0.66 1.32 1.32 2 2 C1.69609888 7.8754216 0.22698702 12.57777073 -2 18 C-2.66 17.67 -3.32 17.34 -4 17 C-2.68 11.39 -1.36 5.78 0 0 Z " fill="#FF812C" transform="translate(376,251)"/>
<path d="M0 0 C3.1171875 0.171875 3.1171875 0.171875 6.875 0.75 C8.72738281 1.02070313 8.72738281 1.02070313 10.6171875 1.296875 C13.47645152 1.8911793 15.51456018 2.52622161 18 4 C10.98231752 5.7952211 4.87132073 3.82890792 -2 2 C-1.34 1.34 -0.68 0.68 0 0 Z " fill="#FF8635" transform="translate(219,347)"/>
<path d="M0 0 C5.39770652 0.6350243 9.21174858 2.86957746 12.71484375 7.04296875 C14.18800676 9.00140899 15.61591205 10.97785732 17 13 C13.06462165 12.30552147 11.92144385 10.77397868 9.50390625 7.62890625 C7.21865259 5.15370943 4.48036483 3.64035625 1.57421875 1.98046875 C1.05472656 1.65691406 0.53523438 1.33335937 0 1 C0 0.67 0 0.34 0 0 Z " fill="#FF761A" transform="translate(357,135)"/>
<path d="M0 0 C3.33136597 1.42353524 5.27664757 3.1335313 7.625 5.875 C8.21539062 6.55304688 8.80578125 7.23109375 9.4140625 7.9296875 C10.91318087 9.88666469 11.98569068 11.76048537 13 14 C12.01 14.495 12.01 14.495 11 15 C9.5369343 13.25395451 8.0797192 11.50300547 6.625 9.75 C5.81289062 8.77546875 5.00078125 7.8009375 4.1640625 6.796875 C2.42148243 4.5447318 1.123584 2.59288614 0 0 Z " fill="#FF771C" transform="translate(117,273)"/>
<path d="M0 0 C0.99 0.33 1.98 0.66 3 1 C0.375 6.75 0.375 6.75 -3 9 C-3.99 8.01 -4.98 7.02 -6 6 C-4 4 -2 2 0 0 Z " fill="#FF8331" transform="translate(169,127)"/>
<path d="M0 0 C2 2 2 2 2.046875 4.20703125 C1.05825243 12.88349515 1.05825243 12.88349515 -1 17 C-1.66 16.67 -2.32 16.34 -3 16 C-2.01 10.72 -1.02 5.44 0 0 Z " fill="#FF802B" transform="translate(361,183)"/>
<path d="M0 0 C3 1 3 1 5 4 C5 4.99 5 5.98 5 7 C2.36 6.34 -0.28 5.68 -3 5 C-1.125 1.125 -1.125 1.125 0 0 Z " fill="#FF7418" transform="translate(390,183)"/>
<path d="M0 0 C1.64933228 0.06399526 3.29615131 0.20073916 4.9375 0.375 C6.28134766 0.51035156 6.28134766 0.51035156 7.65234375 0.6484375 C10 1 10 1 12 2 C12 2.99 12 3.98 12 5 C10.39431334 4.71682074 8.79047953 4.42312209 7.1875 4.125 C6.29417969 3.96257812 5.40085937 3.80015625 4.48046875 3.6328125 C2 3 2 3 -1 1 C-0.67 0.67 -0.34 0.34 0 0 Z " fill="#FF8737" transform="translate(364,151)"/>
<path d="M0 0 C4.68738665 0.90723613 9.34193744 1.9547267 14 3 C10.3046875 5.03125 10.3046875 5.03125 7.5625 4.75 C4.95850149 3.98785409 2.49303838 3.06844502 0 2 C0 1.34 0 0.68 0 0 Z " fill="#FF8432" transform="translate(138,315)"/>
<path d="M0 0 C0.99 1.485 0.99 1.485 2 3 C2.66 2.67 3.32 2.34 4 2 C3.67 5.3 3.34 8.6 3 12 C2.67 11.01 2.34 10.02 2 9 C1.34 9 0.68 9 0 9 C0 6.03 0 3.06 0 0 Z " fill="#FF8F44" transform="translate(358,203)"/>
<path d="M0 0 C1.32 0.33 2.64 0.66 4 1 C3.01 1.495 3.01 1.495 2 2 C2 6.95 2 11.9 2 17 C1.67 17 1.34 17 1 17 C0.67 11.39 0.34 5.78 0 0 Z " fill="#FF8B3E" transform="translate(147,273)"/>
<path d="M0 0 C8.57142857 -0.28571429 8.57142857 -0.28571429 12 2 C11.67 2.66 11.34 3.32 11 4 C9.35232753 3.71890887 7.70686855 3.42481474 6.0625 3.125 C4.68771484 2.88136719 4.68771484 2.88136719 3.28515625 2.6328125 C2.53105469 2.42398438 1.77695312 2.21515625 1 2 C0.67 1.34 0.34 0.68 0 0 Z " fill="#FFE1CD" transform="translate(274,103)"/>
<path d="M0 0 C0.66 0.33 1.32 0.66 2 1 C2.6328125 3.06640625 2.6328125 3.06640625 3.125 5.5625 C3.29257813 6.38878906 3.46015625 7.21507812 3.6328125 8.06640625 C3.75398437 8.70449219 3.87515625 9.34257812 4 10 C3.01 10.33 2.02 10.66 1 11 C0.63890458 9.35567294 0.28629924 7.7094792 -0.0625 6.0625 C-0.25972656 5.14597656 -0.45695313 4.22945313 -0.66015625 3.28515625 C-0.77230469 2.53105469 -0.88445312 1.77695312 -1 1 C-0.67 0.67 -0.34 0.34 0 0 Z " fill="#FF8636" transform="translate(149,299)"/>
<path d="M0 0 C0.66 0.66 1.32 1.32 2 2 C1.9765625 4.8203125 1.9765625 4.8203125 1.625 8.125 C1.51414063 9.22070312 1.40328125 10.31640625 1.2890625 11.4453125 C1.19367188 12.28835937 1.09828125 13.13140625 1 14 C-1.02907167 10.6853333 -1.12742133 8.5684021 -0.625 4.75 C-0.51414062 3.85796875 -0.40328125 2.9659375 -0.2890625 2.046875 C-0.19367188 1.37140625 -0.09828125 0.6959375 0 0 Z " fill="#FF8A3C" transform="translate(128,202)"/>
<path d="M0 0 C1.98983228 3.97966457 2.22400716 4.67675132 1.625 8.75 C1.51414062 9.54921875 1.40328125 10.3484375 1.2890625 11.171875 C1.19367188 11.77515625 1.09828125 12.3784375 1 13 C0.34 13 -0.32 13 -1 13 C-0.67 8.71 -0.34 4.42 0 0 Z " fill="#FF8737" transform="translate(371,242)"/>
<path d="M0 0 C2.49505962 2.49505962 2.35948376 3.67328888 2.625 7.125 C2.69976562 8.03507813 2.77453125 8.94515625 2.8515625 9.8828125 C2.92503906 10.93082031 2.92503906 10.93082031 3 12 C2.34 12 1.68 12 1 12 C-0.41404314 8.19975907 -1.34892324 5.07077118 -1 1 C-0.67 0.67 -0.34 0.34 0 0 Z " fill="#FF7E27" transform="translate(350,146)"/>
<path d="M0 0 C3.875 0.875 3.875 0.875 5 2 C6.51469448 2.23192865 8.03754562 2.41215238 9.5625 2.5625 C10.38878906 2.64628906 11.21507812 2.73007813 12.06640625 2.81640625 C12.70449219 2.87699219 13.34257812 2.93757812 14 3 C14 3.33 14 3.66 14 4 C10.64463 4.64674116 7.42221863 5.15019141 4 5 C1.375 2.5625 1.375 2.5625 0 0 Z " fill="#FF8C40" transform="translate(333,128)"/>
<path d="M0 0 C2.95929119 2.75520215 5.03681826 5.46627288 7 9 C6.34 9.66 5.68 10.32 5 11 C0.57142857 3.57142857 0.57142857 3.57142857 0 0 Z " fill="#FF7A21" transform="translate(138,293)"/>
<path d="M0 0 C0.66 0.66 1.32 1.32 2 2 C1.9765625 4.1640625 1.9765625 4.1640625 1.625 6.625 C1.51414063 7.44226563 1.40328125 8.25953125 1.2890625 9.1015625 C1.19367188 9.72804688 1.09828125 10.35453125 1 11 C-1.78637633 6.8204355 -0.79562512 4.85331323 0 0 Z " fill="#FF8736" transform="translate(138,258)"/>
<path d="M0 0 C0.66 0 1.32 0 2 0 C2.33 0.99 2.66 1.98 3 3 C2.67 3.33 2.34 3.66 2 4 C1.76712992 5.68183948 1.58735834 7.3712416 1.4375 9.0625 C1.35371094 9.98160156 1.26992188 10.90070313 1.18359375 11.84765625 C1.12300781 12.55792969 1.06242187 13.26820313 1 14 C0.67 14 0.34 14 0 14 C0 9.38 0 4.76 0 0 Z " fill="#FF934B" transform="translate(366,173)"/>
<path d="M0 0 C0 3.5609462 -0.77175808 4.34325001 -3 7 C-3.66 7.66 -4.32 8.32 -5 9 C-5.66 8.34 -6.32 7.68 -7 7 C-4.69 4.69 -2.38 2.38 0 0 Z " fill="#FFA568" transform="translate(338,317)"/>
<path d="M0 0 C0.33 0 0.66 0 1 0 C0.25 7.75 0.25 7.75 -2 10 C-1.85950482 8.52031676 -1.71245174 7.04125484 -1.5625 5.5625 C-1.48128906 4.73878906 -1.40007812 3.91507813 -1.31640625 3.06640625 C-1 1 -1 1 0 0 Z " fill="#FF7A21" transform="translate(141,250)"/>
<path d="M0 0 C0.99 0.33 1.98 0.66 3 1 C3 2.32 3 3.64 3 5 C2.01 5 1.02 5 0 5 C-0.33 5.66 -0.66 6.32 -1 7 C-0.67 4.69 -0.34 2.38 0 0 Z " fill="#FF6E0D" transform="translate(140,236)"/>
<path d="M0 0 C2.62187494 1.04874998 3.79371361 1.64931313 5.25 4.125 C5.4975 4.74375 5.745 5.3625 6 6 C5.01 6.495 5.01 6.495 4 7 C0 2.25 0 2.25 0 0 Z " fill="#FF812D" transform="translate(124,281)"/>
<path d="M0 0 C0.66 0.33 1.32 0.66 2 1 C1.45276317 4.37462715 0.9451 6.08235 -1 9 C-2.25541557 5.23375329 -1.37061958 3.62811066 0 0 Z " fill="#FF802C" transform="translate(366,266)"/>
<path d="M0 0 C0.66 0.66 1.32 1.32 2 2 C1.96712417 4.72869407 1.43602229 7.2966618 1 10 C-1.56687367 6.1496895 -0.83288724 4.41430237 0 0 Z " fill="#FF8D40" transform="translate(376,251)"/>
<path d="M0 0 C0.33 0 0.66 0 1 0 C1.33 3.3 1.66 6.6 2 10 C1.34 10 0.68 10 0 10 C-0.95024979 6.30458414 -0.95024979 3.69541586 0 0 Z " fill="#FF8C3E" transform="translate(378,199)"/>
<path d="M0 0 C0.66 0.66 1.32 1.32 2 2 C1.01 3.98 0.02 5.96 -1 8 C-1.66 7.67 -2.32 7.34 -3 7 C-1.125 1.125 -1.125 1.125 0 0 Z " fill="#FF802C" transform="translate(140,168)"/>
</svg>
